<svg width="50" height="50" viewBox="0 0 50 50" fill="none" xmlns="http://www.w3.org/2000/svg">
<rect width="50" height="50" rx="6" fill="#FEDCD0"/>
<path d="M19.3633 35.4634C19.072 35.4634 18.8359 35.6995 18.8359 35.9907V38.2452C18.8359 38.5365 19.072 38.7726 19.3633 38.7726C19.6545 38.7726 19.8906 38.5365 19.8906 38.2452V35.9907C19.8906 35.6995 19.6545 35.4634 19.3633 35.4634Z" fill="#F0551C"/>
<path d="M30.6367 35.4634C30.3455 35.4634 30.1094 35.6995 30.1094 35.9907V38.2452C30.1094 38.5365 30.3455 38.7726 30.6367 38.7726C30.928 38.7726 31.1641 38.5365 31.1641 38.2452V35.9907C31.1641 35.6995 30.928 35.4634 30.6367 35.4634Z" fill="#F0551C"/>
<path d="M15.0902 24.2465C13.8657 23.6342 11.5698 23.6272 11.4726 23.6272C11.1814 23.6272 10.9454 23.8632 10.9453 24.1544C10.9452 24.4456 11.1812 24.6818 11.4724 24.6819C12.0657 24.6822 13.7873 24.7742 14.6186 25.1898C14.6943 25.2277 14.7747 25.2456 14.854 25.2456C15.0474 25.2456 15.2337 25.1387 15.3261 24.954C15.4563 24.6935 15.3507 24.3767 15.0902 24.2465Z" fill="#F0551C"/>
<path d="M9.78125 34.3362C9.49002 34.3362 9.25391 34.5723 9.25391 34.8635V38.2453C9.25391 38.5366 9.49002 38.7727 9.78125 38.7727C10.0725 38.7727 10.3086 38.5366 10.3086 38.2453V34.8635C10.3086 34.5724 10.0726 34.3362 9.78125 34.3362Z" fill="#F0551C"/>
<path d="M41.7737 32.3665L39.6382 31.2989C39.6258 31.2927 39.618 31.2802 39.618 31.2664L39.6182 30.1931C40.4948 29.5895 41.1153 28.6352 41.2706 27.5153C41.6649 26.8339 41.8727 26.0642 41.8727 25.2816C41.8727 23.8223 41.17 22.5242 40.0854 21.7073C40.149 21.4956 40.1818 21.2772 40.1818 21.0544C40.1818 19.6759 38.9338 18.5543 37.4 18.5543C35.8661 18.5543 34.6181 19.6759 34.6181 21.0544C34.6181 21.2775 34.6506 21.496 34.7142 21.7075C34.0675 22.1947 33.5576 22.8533 33.2506 23.6148C33.1199 22.3303 32.9838 20.8118 32.8532 19.0428C32.681 16.7089 31.8416 14.7379 30.4259 13.343C29.021 11.9587 27.1447 11.2271 25 11.2271C22.8552 11.2271 20.9789 11.9587 19.5742 13.343C18.1585 14.7379 17.3191 16.7089 17.1468 19.0428C17.1011 19.6624 17.0547 20.2497 17.0081 20.8088H12.0364C10.1917 20.8088 8.69087 22.3096 8.69087 24.1543V24.1858C8.69087 24.6154 8.7924 25.0456 8.98457 25.4299L9.2545 25.9698V26.8308C9.2545 28.1953 9.92689 29.4196 10.9454 30.1564V30.918C10.9454 31.0157 10.8798 31.1026 10.7859 31.1295L8.60882 31.7515C7.66157 32.0221 7 32.8992 7 33.8843V38.2451C7 38.5364 7.23611 38.7725 7.52734 38.7725C7.81858 38.7725 8.05469 38.5364 8.05469 38.2451V33.8843C8.05469 33.3675 8.40175 32.9074 8.89857 32.7655L11.0757 32.1434C11.1543 32.121 11.2289 32.0906 11.2999 32.0544L12.6363 33.3908V38.2451C12.6363 38.5364 12.8724 38.7725 13.1637 38.7725C13.4549 38.7725 13.691 38.5364 13.691 38.2451V33.3908L15.0368 32.0451C15.2166 32.1333 15.3959 32.1846 15.5272 32.2222L16.0618 32.3749C15.3374 32.89 14.8909 33.7302 14.8909 34.6412V38.245C14.8909 38.5362 15.127 38.7723 15.4182 38.7723C15.7095 38.7723 15.9456 38.5362 15.9456 38.245V34.6412C15.9456 33.9576 16.3496 33.3375 16.975 33.0613L19.99 31.7296C20.9348 33.6217 22.8654 34.827 25 34.827C27.1426 34.827 29.0668 33.6244 30.011 31.7301L33.0251 33.0613C33.6504 33.3375 34.0545 33.9576 34.0545 34.6412V38.245C34.0545 38.5362 34.2906 38.7723 34.5819 38.7723C34.8731 38.7723 35.1092 38.5362 35.1092 38.245V34.6412C35.1092 33.9666 34.864 33.3311 34.4432 32.8371L35.2593 32.4291L35.8719 33.0113C36.3004 33.4185 36.8501 33.622 37.4 33.622C37.9497 33.622 38.4997 33.4184 38.9281 33.0113L39.5406 32.4292L41.3021 33.3098C41.6989 33.5082 41.9453 33.907 41.9453 34.3506V38.2451C41.9453 38.5363 42.1814 38.7724 42.4727 38.7724C42.7639 38.7724 43 38.5363 43 38.2451V34.3506C42.9999 33.505 42.53 32.7447 41.7737 32.3665ZM37.3999 19.6089C38.3522 19.6089 39.1271 20.2573 39.1271 21.0543C39.1271 21.0877 39.1244 21.1208 39.1217 21.1539C38.5914 20.9318 38.0098 20.8088 37.3999 20.8088C36.7901 20.8088 36.2085 20.9318 35.6784 21.1538C35.6756 21.1208 35.6727 21.0877 35.6727 21.0543C35.6727 20.2573 36.4476 19.6089 37.3999 19.6089ZM13.1637 32.4267L11.9621 31.2251C11.9869 31.1261 12.0002 31.0231 12.0002 30.918V30.6955C12.3319 30.8044 12.6818 30.869 13.0438 30.8798C13.0844 30.8811 13.1248 30.8817 13.1652 30.8817C13.5651 30.8817 13.9556 30.8213 14.3271 30.706V30.9177C14.3271 31.0321 14.3389 31.1359 14.3597 31.2307L13.1637 32.4267ZM13.0755 29.8255C11.5501 29.7799 10.3092 28.4364 10.3092 26.8308V25.8453C10.3092 25.7634 10.2901 25.6826 10.2535 25.6094L9.92788 24.9582C9.80863 24.7196 9.74556 24.4525 9.74556 24.1858V24.1543C9.74556 22.8912 10.7732 21.8635 12.0364 21.8635H16.5818V24.0527C16.5818 24.4064 16.4982 24.7607 16.3399 25.0771L16.0738 25.6094C16.0372 25.6826 16.0181 25.7634 16.0181 25.8452V26.9725C16.0181 27.7511 15.7103 28.4787 15.1513 29.0211C14.5926 29.5632 13.855 29.8491 13.0755 29.8255ZM17.4829 31.684L15.817 31.2081C15.3817 31.0838 15.3818 31.0352 15.3818 30.9179L15.3819 30.1914C15.5591 30.0687 15.7279 29.9313 15.8859 29.778C15.9922 29.6748 16.0912 29.5663 16.1841 29.4538C16.2688 29.6256 16.3987 29.7757 16.5665 29.8844C16.9892 30.1581 17.7869 30.6128 18.96 31.0316L17.4829 31.684ZM25 33.7724C23.2842 33.7724 21.7303 32.8133 20.9554 31.3033L21.723 30.9643C22.322 30.6997 22.7091 30.1056 22.7091 29.4508V28.1854C23.4177 28.4701 24.1908 28.6271 25 28.6271C25.8091 28.6271 26.5822 28.4701 27.2908 28.1854V29.4508C27.2908 30.1056 27.6779 30.6998 28.2769 30.9643L29.0444 31.3033C28.2701 32.8149 26.7221 33.7724 25 33.7724ZM29.5727 30.3836L28.703 29.9995C28.4858 29.9036 28.3455 29.6881 28.3455 29.4507V27.6377C30.0402 26.5382 31.1637 24.6296 31.1637 22.4634V21.4746C31.1637 20.8319 30.8905 20.2257 30.414 19.8114C29.3545 18.8899 26.9561 17.2818 22.7979 16.866C22.5089 16.837 22.2497 17.0484 22.2207 17.3382C22.1918 17.6281 22.4032 17.8865 22.693 17.9154C26.5605 18.3022 28.7569 19.768 29.7219 20.6073C29.968 20.8212 30.109 21.1374 30.109 21.4746V22.4634C30.109 25.2805 27.8171 27.5724 25 27.5724C22.183 27.5724 19.8911 25.2805 19.8911 22.4634V22.0222C19.8911 21.8196 20.0034 21.634 20.1916 21.5256C20.8509 21.146 21.7204 20.4428 22.1186 19.2484C22.2107 18.9721 22.0613 18.6734 21.785 18.5813C21.5088 18.4892 21.2101 18.6385 21.1179 18.9149C20.8246 19.7949 20.1661 20.3233 19.6653 20.6116C19.154 20.906 18.8363 21.4466 18.8363 22.0223V22.4635C18.8363 24.6297 19.9598 26.5383 21.6545 27.6377V29.4508C21.6545 29.6882 21.5142 29.9036 21.297 29.9995L20.4273 30.3837C18.7288 29.9292 17.6405 29.3233 17.1397 28.9991C17.1297 28.9927 17.1241 28.9853 17.1269 28.9686C17.3108 27.8813 17.7835 24.745 18.1987 19.1205C18.3519 17.0452 19.0835 15.3071 20.3144 14.0942C21.5178 12.9085 23.138 12.2817 25 12.2817C26.8619 12.2817 28.4821 12.9085 29.6855 14.0942C30.9165 15.3071 31.6481 17.0451 31.8013 19.1204C32.2165 24.7447 32.6891 27.8812 32.8731 28.9685C32.8759 28.9853 32.8703 28.9927 32.8603 28.9991C32.3587 29.3238 31.2704 29.9293 29.5727 30.3836ZM35.1817 31.2664C35.1817 31.2802 35.174 31.2927 35.1616 31.2988L33.5094 32.1249C33.4898 32.1157 33.471 32.1054 33.4512 32.0966L31.0401 31.0317C32.2126 30.6131 33.0102 30.1586 33.4334 29.8845C33.7971 29.649 33.9854 29.2205 33.913 28.7927C33.9091 28.7693 33.9048 28.7436 33.9006 28.7183C34.1972 29.3147 34.6406 29.8206 35.1817 30.1931V31.2664ZM38.2013 32.2469C37.752 32.6741 37.0478 32.674 36.5983 32.2469L36.1082 31.7811C36.1909 31.6261 36.2363 31.4504 36.2363 31.2664V30.7052C36.6046 30.8195 36.9953 30.8816 37.3998 30.8816C37.8043 30.8816 38.1951 30.8195 38.5633 30.7052L38.5632 31.2662C38.5632 31.4504 38.6086 31.6261 38.6914 31.7812L38.2013 32.2469ZM37.3999 29.8269C35.9398 29.8269 34.7203 28.7335 34.5633 27.2836C34.5549 27.2059 34.5293 27.1311 34.4884 27.0644C34.157 26.5246 33.9818 25.9081 33.9818 25.2815C33.9818 23.3969 35.5151 21.8635 37.3999 21.8635C39.2846 21.8635 40.818 23.3969 40.818 25.2816C40.818 25.6449 40.7587 26.0047 40.6446 26.3483C39.1472 24.8271 36.5131 24.2309 36.3861 24.2029C36.2302 24.1685 36.0669 24.2068 35.9423 24.3068C35.8178 24.407 35.7453 24.5581 35.7453 24.7179C35.7453 24.7213 35.7213 25.0872 35.3362 25.4723C35.1302 25.6782 35.1302 26.0121 35.3362 26.218C35.5421 26.4239 35.876 26.4239 36.0819 26.218C36.3785 25.9214 36.5527 25.6204 36.6549 25.3662C37.5423 25.6298 39.384 26.2956 40.2105 27.4641C39.9759 28.8231 38.7986 29.8269 37.3999 29.8269Z" fill="#F0551C"/>
<path d="M40.2187 35.033C39.9275 35.033 39.6914 35.2691 39.6914 35.5603V38.2453C39.6914 38.5366 39.9275 38.7727 40.2187 38.7727C40.51 38.7727 40.7461 38.5366 40.7461 38.2453V35.5603C40.7461 35.2691 40.51 35.033 40.2187 35.033Z" fill="#F0551C"/>
</svg>
