<svg width="80" height="80" viewBox="0 0 80 80" fill="none" xmlns="http://www.w3.org/2000/svg">
<path d="M32 59.4512V40.6978C32 38.3907 35.5556 42.5434 40 42.5434C44.4444 42.5434 48 38.8521 48 40.6978V59.4525C48 60.1804 47.2472 60.6565 46.5849 60.3544L40.4151 57.5395C40.1514 57.4193 39.8486 57.4193 39.5849 57.5395L33.4151 60.3544C32.7528 60.6565 32 60.1791 32 59.4512Z" fill="url(#paint0_linear_89_9060)"/>
<path d="M36.9377 3.37261C38.7404 1.97594 41.2596 1.97595 43.0623 3.37261L43.771 3.9217C44.6892 4.63313 45.8265 5.00265 46.9876 4.96682L47.8837 4.93916C50.163 4.86882 52.2011 6.34962 52.8386 8.53913L53.0892 9.39991C53.4139 10.5152 54.1168 11.4826 55.0771 12.1361L55.8183 12.6404C57.7037 13.9233 58.4822 16.3192 57.7109 18.4653L57.4077 19.309C57.0149 20.4021 57.0149 21.5979 57.4077 22.691L57.7109 23.5347C58.4822 25.6808 57.7037 28.0767 55.8183 29.3596L55.0771 29.8639C54.1168 30.5174 53.4139 31.4848 53.0892 32.6001L52.8386 33.4609C52.2011 35.6504 50.163 37.1312 47.8837 37.0608L46.9876 37.0332C45.8265 36.9973 44.6892 37.3669 43.771 38.0783L43.0623 38.6274C41.2596 40.0241 38.7404 40.0241 36.9377 38.6274L36.229 38.0783C35.3108 37.3669 34.1735 36.9973 33.0124 37.0332L32.1163 37.0608C29.837 37.1312 27.7989 35.6504 27.1614 33.4609L26.9108 32.6001C26.5861 31.4848 25.8832 30.5174 24.9229 29.8639L24.1817 29.3596C22.2963 28.0767 21.5178 25.6808 22.2891 23.5347L22.5923 22.691C22.9851 21.5979 22.9851 20.4021 22.5923 19.309L22.2891 18.4653C21.5178 16.3192 22.2963 13.9233 24.1817 12.6404L24.9229 12.1361C25.8832 11.4826 26.5861 10.5152 26.9108 9.39991L27.1614 8.53912C27.7989 6.34961 29.837 4.86882 32.1163 4.93916L33.0124 4.96682C34.1735 5.00265 35.3108 4.63313 36.229 3.9217L36.9377 3.37261Z" fill="url(#paint1_linear_89_9060)"/>
<path d="M34 20.0476L38.2648 24.2968C38.655 24.6856 39.2862 24.6856 39.6764 24.2968L47 17" stroke="white" stroke-width="4" stroke-linecap="round"/>
<ellipse cx="40.5" cy="76" rx="17.5" ry="3" fill="#E8E5E4"/>
<defs>
<linearGradient id="paint0_linear_89_9060" x1="40" y1="40" x2="40" y2="61" gradientUnits="userSpaceOnUse">
<stop stop-color="#3480F9"/>
<stop offset="1" stop-color="#35B3FE"/>
</linearGradient>
<linearGradient id="paint1_linear_89_9060" x1="40" y1="1" x2="40" y2="41" gradientUnits="userSpaceOnUse">
<stop stop-color="#FFAC36"/>
<stop offset="1" stop-color="#FFCE57"/>
</linearGradient>
</defs>
</svg>
