<svg width="80" height="80" viewBox="0 0 80 80" fill="none" xmlns="http://www.w3.org/2000/svg">
<ellipse cx="39.5" cy="74" rx="17.5" ry="3" fill="#E8E5E4"/>
<path fill-rule="evenodd" clip-rule="evenodd" d="M27.2948 16.9999L51.335 16.9999C51.5906 16.9999 51.8372 17.0979 52.0216 17.2749C62.3228 27.1631 67.915 40.4472 61.1279 49.6099C54.2777 58.8578 24.3421 58.481 18.6279 49.6099C12.9714 40.8283 16.8281 28.6172 26.5416 17.3445C26.73 17.1259 27.0062 16.9999 27.2948 16.9999ZM27.0858 14.3877C26.5211 13.0301 25.1873 9.78177 24.7883 8.44621C24.2776 6.73655 24.9488 5.56828 27.3417 5.4543L33.7039 5.4543C33.9741 5.4543 34.2296 5.34357 34.4294 5.16165C36.3706 3.39412 40.6939 1.33656 44.9173 5.17307C45.1105 5.34862 45.3619 5.4543 45.623 5.4543L50.9062 5.4543C52.6572 5.4543 55.4294 5.81048 54.4081 8.44621C53.6415 10.4245 52.6283 13.125 52.1705 14.3492C52.0242 14.7405 51.6506 14.9999 51.2329 14.9999L28.0053 14.9999C27.6032 14.9999 27.2402 14.759 27.0858 14.3877Z" fill="url(#paint0_linear_89_9050)"/>
<path d="M46.542 25.362C47.046 25.362 47.472 25.542 47.82 25.902C48.18 26.25 48.36 26.676 48.36 27.18V37.602V37.71C48.36 39.114 47.964 40.41 47.172 41.598C46.38 42.786 45.33 43.728 44.022 44.424C42.714 45.108 41.328 45.45 39.864 45.45C38.388 45.45 37.002 45.102 35.706 44.406C34.41 43.71 33.366 42.774 32.574 41.598C31.794 40.41 31.404 39.114 31.404 37.71V37.602V27.18C31.404 26.676 31.578 26.25 31.926 25.902C32.286 25.542 32.718 25.362 33.222 25.362C33.726 25.362 34.152 25.542 34.5 25.902C34.86 26.25 35.04 26.676 35.04 27.18V27.234V37.602V37.71C35.04 38.43 35.268 39.108 35.724 39.744C36.18 40.368 36.78 40.872 37.524 41.256C38.268 41.628 39.048 41.814 39.864 41.814C40.68 41.814 41.46 41.628 42.204 41.256C42.96 40.884 43.566 40.38 44.022 39.744C44.478 39.108 44.706 38.43 44.706 37.71L44.724 37.602V27.234L44.706 27.18C44.706 26.676 44.886 26.25 45.246 25.902C45.606 25.542 46.038 25.362 46.542 25.362Z" fill="url(#paint1_linear_89_9050)"/>
<defs>
<linearGradient id="paint0_linear_89_9050" x1="40" y1="2.99992" x2="40" y2="55.9999" gradientUnits="userSpaceOnUse">
<stop offset="0.390395" stop-color="#FFAB35"/>
<stop offset="0.920142" stop-color="#FFCE57"/>
</linearGradient>
<linearGradient id="paint1_linear_89_9050" x1="40" y1="25" x2="40" y2="63.5" gradientUnits="userSpaceOnUse">
<stop offset="0.382155" stop-color="white"/>
<stop offset="1" stop-color="white" stop-opacity="0"/>
</linearGradient>
</defs>
</svg>
