<svg width="80" height="80" viewBox="0 0 80 80" fill="none" xmlns="http://www.w3.org/2000/svg">
<ellipse cx="38.4312" cy="68.9583" rx="17.5" ry="3" fill="#E8E5E4"/>
<path fill-rule="evenodd" clip-rule="evenodd" d="M24.2561 26.7818C31.7603 28.7976 38.7254 30.6687 52.7468 26.2751L70.8531 20.1897C71.7863 19.8761 71.7523 18.5446 70.8044 18.2789L37.8303 9.0371C37.6469 8.98568 37.4525 8.98775 37.2702 9.04305L6.70977 18.3124C5.7997 18.5884 5.75245 19.8592 6.63951 20.2021L22.352 26.2751C22.9935 26.4426 23.6267 26.6127 24.2561 26.7818ZM21.4512 44.6907C21.124 44.5354 20.931 44.2045 20.931 43.8423V29.7142C20.931 28.9391 21.7788 28.4488 22.4763 28.7866C31.3442 33.0802 45.5254 32.7625 53.3336 28.8648C54.0427 28.5109 54.931 29.004 54.931 29.7965V43.8911C54.931 44.2269 54.7649 44.5371 54.47 44.6978C52.9567 45.522 47.6984 47.9584 38.4167 47.9584C29.1085 47.9584 23.1724 45.5081 21.4512 44.6907Z" fill="url(#paint0_linear_89_8961)"/>
<path d="M67.185 38.7522L70.1115 24.8515C70.3367 23.7819 71.8691 23.7974 72.0726 24.8714L74.7064 38.7721C74.8231 39.388 74.3508 39.9583 73.7239 39.9583H68.1636C67.5284 39.9583 67.0542 39.3738 67.185 38.7522Z" fill="url(#paint1_linear_89_8961)"/>
<defs>
<linearGradient id="paint0_linear_89_8961" x1="38.7673" y1="9" x2="38.7673" y2="47.9584" gradientUnits="userSpaceOnUse">
<stop offset="0.485018" stop-color="#3480F9"/>
<stop offset="1" stop-color="#35B2FD"/>
</linearGradient>
<linearGradient id="paint1_linear_89_8961" x1="70.9312" y1="19.9583" x2="70.9312" y2="39.9583" gradientUnits="userSpaceOnUse">
<stop stop-color="#FFAC36"/>
<stop offset="1" stop-color="#FFCD56"/>
</linearGradient>
</defs>
</svg>
