<svg width="80" height="80" viewBox="0 0 80 80" fill="none" xmlns="http://www.w3.org/2000/svg">
<ellipse cx="40.5" cy="75" rx="17.5" ry="3" fill="#E8E5E4"/>
<path fill-rule="evenodd" clip-rule="evenodd" d="M27.619 9C26.7249 9 26 9.72487 26 10.619V13H19.2C16.8804 13 15 14.8804 15 17.2C15 24.7345 19.96 31.1106 26.7929 33.2412C28.7571 38.921 34.1522 43 40.5 43C46.995 43 52.4927 38.7296 54.3383 32.8433C60.5807 30.3919 65 24.3121 65 17.2C65 14.8804 63.1196 13 60.8 13H55V10.619C55 9.72487 54.2751 9 53.381 9H27.619ZM26 16H19.2C18.5373 16 18 16.5373 18 17.2C18 22.7707 21.3007 27.5704 26.0531 29.7501C26.018 29.3381 26 28.9211 26 28.5V16ZM54.9824 29.2211C54.9941 28.9822 55 28.7418 55 28.5V16H60.8C61.4627 16 62 16.5373 62 17.2C62 22.3563 59.172 26.8522 54.9824 29.2211ZM36.2606 61.7895L39.7077 45.7799C39.9367 44.716 41.46 44.7318 41.667 45.8001L44.7694 61.8098C44.8889 62.4269 44.4162 63 43.7876 63H37.2382C36.6012 63 36.1265 62.4123 36.2606 61.7895Z" fill="url(#paint0_linear_89_8998)"/>
<path d="M26 4C26 2.89543 26.8954 2 28 2H53C54.1046 2 55 2.89543 55 4V7H26V4Z" fill="url(#paint1_linear_89_8998)"/>
<path d="M39.1359 16.4836C39.5216 15.8213 40.4784 15.8213 40.8641 16.4836L42.3645 19.0595C42.5058 19.3021 42.7425 19.4742 43.0169 19.5336L45.9304 20.1645C46.6795 20.3267 46.9752 21.2366 46.4645 21.8081L44.4783 24.0311C44.2912 24.2404 44.2008 24.5188 44.229 24.7981L44.5293 27.764C44.6065 28.5265 43.8325 29.0889 43.1312 28.7798L40.4032 27.5777C40.1463 27.4645 39.8537 27.4645 39.5968 27.5777L36.8688 28.7798C36.1675 29.0889 35.3935 28.5265 35.4707 27.764L35.771 24.7981C35.7992 24.5188 35.7088 24.2404 35.5217 24.0311L33.5355 21.8081C33.0248 21.2366 33.3205 20.3267 34.0695 20.1645L36.9831 19.5336C37.2575 19.4742 37.4942 19.3021 37.6355 19.0595L39.1359 16.4836Z" fill="white"/>
<defs>
<linearGradient id="paint0_linear_89_8998" x1="40" y1="9" x2="40" y2="63" gradientUnits="userSpaceOnUse">
<stop offset="0.0767017" stop-color="#FFAC36"/>
<stop offset="0.393572" stop-color="#FFAC36"/>
<stop offset="1" stop-color="#FFCD57"/>
</linearGradient>
<linearGradient id="paint1_linear_89_8998" x1="40.5" y1="2" x2="40.5" y2="7" gradientUnits="userSpaceOnUse">
<stop stop-color="#3480F9"/>
<stop offset="1" stop-color="#35B4FE"/>
</linearGradient>
</defs>
</svg>
