<svg width="80" height="80" viewBox="0 0 80 80" fill="none" xmlns="http://www.w3.org/2000/svg">
<ellipse cx="38.5" cy="73" rx="17.5" ry="3" fill="#E8E5E4"/>
<path fill-rule="evenodd" clip-rule="evenodd" d="M29.2268 5.24079C32.6507 3.76182 36.322 3 40.0307 3C43.7394 3 47.4107 3.76182 50.8346 5.24079C54.2584 6.71971 57.3666 8.88621 59.9828 11.6144C62.5989 14.3426 64.672 17.5791 66.0857 21.1382C66.3173 21.7213 66.5305 22.3112 66.7251 22.907H67.061C69.8225 22.907 72.061 25.1456 72.061 27.907V38.0744C72.061 40.8358 69.8225 43.0744 67.061 43.0744H64.6001C64.0478 43.0744 63.6001 42.6267 63.6001 42.0744V23.907C63.6001 23.3547 64.0478 22.907 64.6001 22.907H64.6131C64.4911 22.5611 64.3624 22.2175 64.227 21.8765C62.9072 18.5539 60.9739 15.5376 58.5393 12.9987C56.1047 10.4599 53.2168 8.44839 50.0416 7.07682C46.8664 5.70531 43.4648 5 40.0307 5C36.5966 5 33.1951 5.70531 30.0199 7.07683C26.8446 8.44839 23.9567 10.4599 21.5222 12.9987C19.0876 15.5376 17.1542 18.5539 15.8345 21.8765C15.699 22.2175 15.5703 22.5611 15.4484 22.9069H15.4609C16.0132 22.9069 16.4609 23.3546 16.4609 23.9069V42.0743C16.4609 42.6266 16.0132 43.0743 15.4609 43.0743H13C10.2386 43.0743 8 40.8358 8 38.0743V27.9069C8 25.1455 10.2386 22.9069 13 22.9069H13.3364C13.531 22.3112 13.7441 21.7213 13.9757 21.1382C15.3894 17.5791 17.4625 14.3426 20.0786 11.6144C22.6948 8.88621 25.803 6.71971 29.2268 5.24079Z" fill="#FDB812"/>
<circle cx="40.0308" cy="33.7512" r="20" fill="url(#paint0_linear_89_9038)"/>
<path d="M44.8836 32.9361C45.4446 33.3347 45.4446 34.1677 44.8836 34.5664L37.86 39.5572C37.1979 40.0277 36.2808 39.5543 36.2808 38.7421L36.2808 28.7604C36.2808 27.9481 37.1979 27.4747 37.86 27.9452L44.8836 32.9361Z" fill="white"/>
<defs>
<linearGradient id="paint0_linear_89_9038" x1="40.0308" y1="13.7512" x2="40.0308" y2="53.7512" gradientUnits="userSpaceOnUse">
<stop stop-color="#3480F9"/>
<stop offset="1" stop-color="#35B2FE"/>
</linearGradient>
</defs>
</svg>
