<svg width="80" height="80" viewBox="0 0 80 80" fill="none" xmlns="http://www.w3.org/2000/svg">
<path d="M10 11C10 8.79086 11.7909 7 14 7H64C66.2091 7 68 8.79086 68 11V41C68 43.2091 66.2091 45 64 45H14C11.7909 45 10 43.2091 10 41V11Z" fill="url(#paint0_linear_89_8971)"/>
<path d="M69 48C69.5523 48 70 48.4477 70 49C70 50.6569 68.6569 52 67 52L12 52C10.3431 52 9 50.6569 9 49C9 48.4477 9.44772 48 10 48L69 48Z" fill="#FFAC36"/>
<path fill-rule="evenodd" clip-rule="evenodd" d="M38.7579 24.1613C42.1161 24.1613 44.8385 21.4389 44.8385 18.0806C44.8385 14.7224 42.1161 12 38.7579 12C35.3996 12 32.6772 14.7224 32.6772 18.0806C32.6772 21.4389 35.3996 24.1613 38.7579 24.1613ZM35 26.0323C31.134 26.0323 28 29.1663 28 33.0323V39C28 40.1046 28.8954 41 30 41H47.5161C48.6207 41 49.5161 40.1046 49.5161 39V33.0323C49.5161 29.1663 46.3821 26.0323 42.5161 26.0323H35Z" fill="white"/>
<ellipse cx="39.5" cy="69" rx="17.5" ry="3" fill="#E8E5E4"/>
<defs>
<linearGradient id="paint0_linear_89_8971" x1="39" y1="7" x2="39" y2="45" gradientUnits="userSpaceOnUse">
<stop stop-color="#3481F9"/>
<stop offset="1" stop-color="#35B3FE"/>
</linearGradient>
</defs>
</svg>
