<svg width="50" height="50" viewBox="0 0 50 50" fill="none" xmlns="http://www.w3.org/2000/svg">
<circle cx="25" cy="25" r="23.25" stroke="#1E63E9" stroke-width="3.5"/>
<g clip-path="url(#clip0_675_20982)">
<path d="M25.1554 36.535C23.2291 36.535 21.3313 36.2508 20.2108 35.7676C15.5413 33.7552 15.5413 29.7777 15.5413 25.5667V13.4581H21.3422C21.3397 26.4812 21.3468 25.5237 21.3374 26.4854C21.3164 28.6657 21.3643 29.9432 22.5923 30.8458C23.1676 31.2695 24.1349 31.5188 25.1805 31.513C26.1762 31.5074 27.0926 31.2726 27.572 30.9001C28.6175 30.0881 28.6639 29.1745 28.6636 26.131V13.458H34.4645V25.4123C34.4645 30.0724 34.4556 33.9658 29.7543 35.8332C28.5293 36.3198 26.8315 36.5349 25.1554 36.535ZM16.8929 14.8097V25.5667C16.8929 29.6448 16.8929 32.8659 20.746 34.5264C22.5541 35.3061 27.0053 35.4706 29.2553 34.577C33.1946 33.0122 33.1128 29.739 33.1128 25.4123V14.8097H30.0152V26.1309C30.0155 29.182 30.0157 30.7135 28.4011 31.9676C27.6769 32.5303 26.5057 32.8573 25.1881 32.8646C23.8429 32.8732 22.6039 32.5331 21.7912 31.9344C19.9462 30.5784 19.9655 28.5839 19.9858 26.4723C19.995 25.5174 19.988 26.5541 19.9905 14.8097H16.8929V14.8097Z" fill="#1E63E9"/>
</g>
<defs>
<clipPath id="clip0_675_20982">
<rect width="23.0769" height="23.0769" fill="white" transform="translate(13.4644 13.457)"/>
</clipPath>
</defs>
</svg>
