<svg width="50" height="50" viewBox="0 0 50 50" fill="none" xmlns="http://www.w3.org/2000/svg">
<path d="M45.8333 34.875V9.72911C45.8333 7.22911 43.7917 5.37495 41.3125 5.58328H41.1875C36.8125 5.95828 30.1667 8.18745 26.4583 10.5208L26.1042 10.7499C25.5 11.1249 24.5 11.1249 23.8958 10.7499L23.375 10.4374C19.6667 8.12495 13.0417 5.91661 8.66666 5.56245C6.1875 5.35411 4.16666 7.22911 4.16666 9.70828V34.875C4.16666 36.875 5.79166 38.75 7.79166 39L8.39583 39.0833C12.9167 39.6875 19.8958 41.9791 23.8958 44.1666L23.9792 44.2083C24.5417 44.5208 25.4375 44.5208 25.9792 44.2083C29.9792 42 36.9792 39.6875 41.5208 39.0833L42.2083 39C44.2083 38.75 45.8333 36.875 45.8333 34.875Z" stroke="#1E63E9" stroke-width="3.5" stroke-linecap="round" stroke-linejoin="round"/>
<path d="M25 11.4375V42.6875" stroke="#1E63E9" stroke-width="3.5" stroke-linecap="round" stroke-linejoin="round"/>
<path d="M16.1458 17.6875H11.4583" stroke="#1E63E9" stroke-width="3.5" stroke-linecap="round" stroke-linejoin="round"/>
<path d="M17.7083 23.9375H11.4583" stroke="#1E63E9" stroke-width="3.5" stroke-linecap="round" stroke-linejoin="round"/>
</svg>
