<svg width="80" height="80" viewBox="0 0 80 80" fill="none" xmlns="http://www.w3.org/2000/svg">
<ellipse cx="40.5" cy="72" rx="17.5" ry="3" fill="#E8E5E4"/>
<path d="M59 52V6C59 5.44772 58.5523 5 58 5H37.2C36.6477 5 36.2 5.44771 36.2 6V20.3846C36.2 20.9369 35.7523 21.3846 35.2 21.3846H22C21.4477 21.3846 21 21.8323 21 22.3846V52C21 52.5523 21.4477 53 22 53H58C58.5523 53 59 52.5523 59 52Z" fill="url(#paint0_linear_89_9069)"/>
<path d="M33 17.3V6.98284C33 6.80466 32.7846 6.71543 32.6586 6.84142L22.3414 17.1586C22.2154 17.2846 22.3047 17.5 22.4828 17.5H32.8C32.9105 17.5 33 17.4105 33 17.3Z" fill="url(#paint1_linear_89_9069)"/>
<path d="M26 39H51" stroke="white" stroke-linecap="round"/>
<path d="M26 44H44" stroke="white" stroke-linecap="round"/>
<path d="M26.632 24.948C26.272 24.948 25.996 25.224 25.996 25.596V32.484C25.996 32.856 26.272 33.132 26.632 33.132C27.004 33.132 27.268 32.856 27.268 32.484V25.596C27.268 25.224 27.004 24.948 26.632 24.948ZM32.02 31.872H31.612L28.96 28.8L31.792 25.944C31.924 25.812 31.972 25.668 31.972 25.536C31.972 25.212 31.72 24.948 31.396 24.948C31.252 24.948 31.096 24.972 30.928 25.176L27.808 28.296C27.64 28.464 27.58 28.608 27.58 28.764C27.58 28.932 27.64 29.088 27.784 29.268L30.916 32.88C31.048 33.048 31.24 33.132 31.42 33.132V34.176C31.42 34.56 31.684 34.824 32.056 34.824C32.416 34.824 32.68 34.548 32.68 34.176V32.532C32.68 32.148 32.404 31.872 32.02 31.872ZM40.7124 24.948C40.4364 24.948 40.2564 25.068 40.0164 25.464L37.5684 29.304L35.1204 25.464C34.8804 25.068 34.7004 24.948 34.4244 24.948C34.0764 24.948 33.8124 25.224 33.8124 25.596V32.484C33.8124 32.856 34.0884 33.132 34.4484 33.132C34.8084 33.132 35.0844 32.856 35.0844 32.484V27.66L36.9324 30.564C37.1124 30.864 37.3044 30.984 37.5684 30.984C37.8324 30.984 38.0124 30.864 38.2044 30.564L40.0524 27.66V32.484C40.0524 32.856 40.3284 33.132 40.6884 33.132C41.0484 33.132 41.3244 32.856 41.3244 32.484V25.596C41.3244 25.224 41.0604 24.948 40.7124 24.948ZM44.1563 25.176C44.0003 25.008 43.8683 24.948 43.6643 24.948C43.3523 24.948 43.1003 25.2 43.1003 25.536C43.1003 25.68 43.1483 25.824 43.2683 25.956L45.9443 28.776L42.9323 32.16C42.8363 32.268 42.8003 32.388 42.8003 32.532C42.8003 32.856 43.0643 33.132 43.3883 33.132C43.5923 33.132 43.7603 33.036 43.9643 32.82L47.1203 29.244C47.2643 29.088 47.3243 28.956 47.3243 28.776C47.3243 28.62 47.2643 28.476 47.1083 28.308L44.1563 25.176ZM48.2603 24.948C47.9003 24.948 47.6243 25.224 47.6243 25.596V32.484C47.6243 32.856 47.9003 33.132 48.2603 33.132C48.6203 33.132 48.8963 32.856 48.8963 32.484V25.596C48.8963 25.224 48.6323 24.948 48.2603 24.948ZM53.5883 32.16L50.5763 28.788L53.2523 25.956C53.3723 25.824 53.4323 25.68 53.4323 25.536C53.4323 25.2 53.1683 24.948 52.8563 24.948C52.6523 24.948 52.5203 25.008 52.3643 25.176L49.4003 28.308C49.2563 28.464 49.1843 28.62 49.1843 28.776C49.1843 28.932 49.2563 29.088 49.3883 29.244L52.5683 32.82C52.7603 33.036 52.9283 33.132 53.1323 33.132C53.4563 33.132 53.7203 32.856 53.7203 32.532C53.7203 32.388 53.6843 32.268 53.5883 32.16Z" fill="white"/>
<defs>
<linearGradient id="paint0_linear_89_9069" x1="40" y1="5" x2="40" y2="53" gradientUnits="userSpaceOnUse">
<stop offset="0.434872" stop-color="#3480F9"/>
<stop offset="1" stop-color="#35B1FD"/>
</linearGradient>
<linearGradient id="paint1_linear_89_9069" x1="27.5" y1="6.5" x2="27.5" y2="17.5" gradientUnits="userSpaceOnUse">
<stop stop-color="#FFAC36"/>
<stop offset="1" stop-color="#FFCD56"/>
</linearGradient>
</defs>
</svg>
