<svg width="80" height="80" viewBox="0 0 80 80" fill="none" xmlns="http://www.w3.org/2000/svg">
<ellipse cx="40.5" cy="74" rx="17.5" ry="3" fill="#E8E5E4"/>
<path d="M14 38.2215V4C14 2.89543 14.8954 2 16 2H64C65.1046 2 66 2.89543 66 4V38.2215C66 39.3261 65.1046 40.2215 64 40.2215H54.4401C53.4163 40.2215 52.5578 40.9947 52.451 42.0129L51.7871 48.3431C51.6217 49.9196 49.7756 50.6864 48.542 49.6909L37.3567 40.6651C37.001 40.3781 36.5578 40.2215 36.1007 40.2215H16C14.8954 40.2215 14 39.3261 14 38.2215Z" fill="url(#paint0_linear_89_9080)"/>
<path d="M40.8125 15.25C40.8125 15.7917 40.7135 16.2865 40.5156 16.7344C40.3281 17.1823 40.0833 17.5938 39.7812 17.9688C39.4792 18.3438 39.1406 18.6875 38.7656 19C38.401 19.3125 38.0417 19.599 37.6875 19.8594C37.3438 20.1198 37.0208 20.3646 36.7188 20.5938C36.4271 20.8125 36.2083 21.0208 36.0625 21.2188C36 21.3021 35.9271 21.4323 35.8438 21.6094C35.7604 21.776 35.7188 21.9688 35.7188 22.1875C35.7188 22.75 35.5417 23.2135 35.1875 23.5781C34.8438 23.9427 34.3021 24.125 33.5625 24.125C33.1146 24.125 32.7448 24.0573 32.4531 23.9219C32.1719 23.776 31.9427 23.599 31.7656 23.3906C31.599 23.1823 31.4792 22.9583 31.4062 22.7188C31.3438 22.4792 31.3125 22.2604 31.3125 22.0625C31.3125 21.3542 31.4323 20.7604 31.6719 20.2812C31.9115 19.8021 32.2135 19.3906 32.5781 19.0469C32.9427 18.6927 33.3333 18.3854 33.75 18.125C34.1667 17.8646 34.5573 17.5938 34.9219 17.3125C35.2865 17.0312 35.5885 16.7188 35.8281 16.375C36.0677 16.0208 36.1875 15.5833 36.1875 15.0625C36.1875 14.5208 36.0938 14.0938 35.9062 13.7812C35.7292 13.4688 35.5052 13.2396 35.2344 13.0938C34.974 12.9375 34.6979 12.8438 34.4062 12.8125C34.125 12.7708 33.8854 12.75 33.6875 12.75C33.1667 12.75 32.75 12.8281 32.4375 12.9844C32.125 13.1302 31.8854 13.3177 31.7188 13.5469C31.5625 13.776 31.4583 14.0312 31.4062 14.3125C31.3646 14.5833 31.3438 14.8438 31.3438 15.0938C31.3438 15.5 31.2656 15.849 31.1094 16.1406C30.9531 16.4219 30.7552 16.651 30.5156 16.8281C30.2865 17.0052 30.0312 17.1354 29.75 17.2188C29.4792 17.3021 29.2292 17.3438 29 17.3438C28.2917 17.3438 27.7188 17.151 27.2812 16.7656C26.8438 16.3698 26.625 15.8646 26.625 15.25C26.625 14.9792 26.6562 14.6302 26.7188 14.2031C26.7812 13.776 26.901 13.3229 27.0781 12.8438C27.2552 12.3646 27.5052 11.8854 27.8281 11.4062C28.151 10.9271 28.5729 10.4948 29.0938 10.1094C29.6146 9.72396 30.25 9.41146 31 9.17188C31.75 8.93229 32.6458 8.8125 33.6875 8.8125C34.8646 8.8125 35.8958 8.97396 36.7812 9.29688C37.6771 9.60938 38.4219 10.0521 39.0156 10.625C39.6094 11.1875 40.0573 11.8646 40.3594 12.6562C40.6615 13.4375 40.8125 14.3021 40.8125 15.25ZM36.25 28.4062C36.25 29.2917 36.026 29.9479 35.5781 30.375C35.1302 30.7917 34.5 31 33.6875 31C32.8542 31 32.2135 30.7917 31.7656 30.375C31.3177 29.9479 31.0938 29.2917 31.0938 28.4062C31.0938 27.5104 31.3177 26.8594 31.7656 26.4531C32.2135 26.0469 32.8542 25.8438 33.6875 25.8438C34.5521 25.8438 35.1927 26.0469 35.6094 26.4531C36.0365 26.8594 36.25 27.5104 36.25 28.4062Z" fill="white"/>
<path d="M50.4375 21.5C50.4375 21.8333 50.4167 22.1562 50.375 22.4688C50.3438 22.7812 50.2656 23.0625 50.1406 23.3125C50.0156 23.5521 49.8333 23.75 49.5938 23.9062C49.3646 24.0521 49.0521 24.125 48.6562 24.125C48.2604 24.125 47.9427 24.0521 47.7031 23.9062C47.474 23.75 47.2969 23.5521 47.1719 23.3125C47.0469 23.0625 46.9635 22.7812 46.9219 22.4688C46.8906 22.1562 46.875 21.8333 46.875 21.5L46.0625 16.4375V12.625C46.0625 12.1875 46.099 11.7604 46.1719 11.3438C46.2448 10.9271 46.375 10.5573 46.5625 10.2344C46.75 9.91146 47.0104 9.65104 47.3438 9.45312C47.6875 9.25521 48.125 9.15625 48.6562 9.15625C49.1875 9.15625 49.6198 9.26042 49.9531 9.46875C50.2865 9.66667 50.5469 9.93229 50.7344 10.2656C50.9219 10.5885 51.0469 10.9583 51.1094 11.375C51.1823 11.7917 51.2188 12.2188 51.2188 12.6562V16.5L50.4375 21.5ZM51.2188 28.4375C51.2188 29.3229 50.9948 29.9792 50.5469 30.4062C50.099 30.8229 49.4688 31.0312 48.6562 31.0312C47.8229 31.0312 47.1823 30.8229 46.7344 30.4062C46.2865 29.9792 46.0625 29.3229 46.0625 28.4375C46.0625 27.5417 46.2865 26.8906 46.7344 26.4844C47.1823 26.0781 47.8229 25.875 48.6562 25.875C49.5208 25.875 50.1615 26.0781 50.5781 26.4844C51.0052 26.8906 51.2188 27.5417 51.2188 28.4375Z" fill="#FFCE57"/>
<defs>
<linearGradient id="paint0_linear_89_9080" x1="40" y1="2" x2="40" y2="52" gradientUnits="userSpaceOnUse">
<stop offset="0.33121" stop-color="#3480F9"/>
<stop offset="1" stop-color="#35B3FE"/>
</linearGradient>
</defs>
</svg>
