<svg width="80" height="80" viewBox="0 0 80 80" fill="none" xmlns="http://www.w3.org/2000/svg">
<ellipse cx="39.5" cy="74" rx="17.5" ry="3" fill="#E8E5E4"/>
<path d="M59 50V4C59 3.44772 58.5523 3 58 3H37.2C36.6477 3 36.2 3.44771 36.2 4V18.3846C36.2 18.9369 35.7523 19.3846 35.2 19.3846H22C21.4477 19.3846 21 19.8323 21 20.3846V50C21 50.5523 21.4477 51 22 51H58C58.5523 51 59 50.5523 59 50Z" fill="url(#paint0_linear_89_9018)"/>
<path d="M33 15.3V4.98284C33 4.80466 32.7846 4.71543 32.6586 4.84142L22.3414 15.1586C22.2154 15.2846 22.3047 15.5 22.4828 15.5H32.8C32.9105 15.5 33 15.4105 33 15.3Z" fill="url(#paint1_linear_89_9018)"/>
<path d="M16 57V40C16 38.8954 16.8954 38 18 38H43.5722C44.1249 38 44.6529 38.2287 45.031 38.6318L48.2734 42.0887C48.6515 42.4918 49.1795 42.7205 49.7321 42.7205H61C62.1046 42.7205 63 43.6159 63 44.7205V57C63 58.1046 62.1046 59 61 59H18C16.8954 59 16 58.1046 16 57Z" fill="url(#paint2_linear_89_9018)"/>
<path d="M26 27H51" stroke="white" stroke-linecap="round"/>
<path d="M26 33H44" stroke="white" stroke-linecap="round"/>
<defs>
<linearGradient id="paint0_linear_89_9018" x1="40" y1="3" x2="40" y2="51" gradientUnits="userSpaceOnUse">
<stop offset="0.434872" stop-color="#3480F9"/>
<stop offset="1" stop-color="#35B1FD"/>
</linearGradient>
<linearGradient id="paint1_linear_89_9018" x1="27.5" y1="4.5" x2="27.5" y2="15.5" gradientUnits="userSpaceOnUse">
<stop stop-color="#FFAC36"/>
<stop offset="1" stop-color="#FFCD56"/>
</linearGradient>
<linearGradient id="paint2_linear_89_9018" x1="39.5" y1="38" x2="39.5" y2="59" gradientUnits="userSpaceOnUse">
<stop stop-color="#FFAC36"/>
<stop offset="1" stop-color="#FFCE57"/>
</linearGradient>
</defs>
</svg>
