<svg width="50" height="50" viewBox="0 0 50 50" fill="none" xmlns="http://www.w3.org/2000/svg">
<path d="M20.8333 45.8334H29.1667C39.5833 45.8334 43.75 41.6667 43.75 31.2501V18.7501C43.75 8.33341 39.5833 4.16675 29.1667 4.16675H20.8333C10.4167 4.16675 6.25 8.33341 6.25 18.7501V31.2501C6.25 41.6667 10.4167 45.8334 20.8333 45.8334Z" stroke="#1E63E9" stroke-width="3.5" stroke-linecap="round" stroke-linejoin="round"/>
<path d="M34.375 15.7917V17.8751C34.375 19.5834 32.9792 21.0001 31.25 21.0001H18.75C17.0417 21.0001 15.625 19.6042 15.625 17.8751V15.7917C15.625 14.0834 17.0208 12.6667 18.75 12.6667H31.25C32.9792 12.6667 34.375 14.0626 34.375 15.7917Z" stroke="#1E63E9" stroke-width="3.5" stroke-linecap="round" stroke-linejoin="round"/>
<path d="M16.9502 29.1667H16.9743" stroke="#1E63E9" stroke-width="3" stroke-linecap="round" stroke-linejoin="round"/>
<path d="M24.99 29.1667H25.0141" stroke="#1E63E9" stroke-width="3" stroke-linecap="round" stroke-linejoin="round"/>
<path d="M33.0299 29.1667H33.0539" stroke="#1E63E9" stroke-width="3" stroke-linecap="round" stroke-linejoin="round"/>
<path d="M16.9502 36.4584H16.9743" stroke="#1E63E9" stroke-width="3" stroke-linecap="round" stroke-linejoin="round"/>
<path d="M24.99 36.4584H25.0141" stroke="#1E63E9" stroke-width="3" stroke-linecap="round" stroke-linejoin="round"/>
<path d="M33.0299 36.4584H33.0539" stroke="#1E63E9" stroke-width="3" stroke-linecap="round" stroke-linejoin="round"/>
</svg>
