<svg width="54" height="54" viewBox="0 0 54 54" fill="none" xmlns="http://www.w3.org/2000/svg">
<path opacity="0.4" d="M15.2099 49.5H38.7899C44.9999 49.5 47.4749 45.6975 47.7674 41.0625L48.9374 22.4775C49.2524 17.6175 45.3824 13.5 40.4999 13.5C39.1274 13.5 37.8674 12.7125 37.2374 11.4975L35.6174 8.235C34.5824 6.1875 31.8824 4.5 29.5874 4.5H24.4349C22.1174 4.5 19.4174 6.1875 18.3824 8.235L16.7624 11.4975C16.1324 12.7125 14.8724 13.5 13.4999 13.5C8.61739 13.5 4.74739 17.6175 5.06239 22.4775L6.23239 41.0625C6.50239 45.6975 8.99989 49.5 15.2099 49.5Z" fill="white"/>
<path d="M30.375 19.6875H23.625C22.7025 19.6875 21.9375 18.9225 21.9375 18C21.9375 17.0775 22.7025 16.3125 23.625 16.3125H30.375C31.2975 16.3125 32.0625 17.0775 32.0625 18C32.0625 18.9225 31.2975 19.6875 30.375 19.6875Z" fill="white"/>
<path d="M27 40.7925C31.2001 40.7925 34.605 37.3876 34.605 33.1875C34.605 28.9874 31.2001 25.5825 27 25.5825C22.7999 25.5825 19.395 28.9874 19.395 33.1875C19.395 37.3876 22.7999 40.7925 27 40.7925Z" fill="white"/>
</svg>
