<svg width="20" height="20" viewBox="0 0 20 20" fill="none" xmlns="http://www.w3.org/2000/svg">
<path d="M15.4166 10.5415V13.6248C15.4166 16.2248 12.9916 18.3332 9.99998 18.3332C7.00831 18.3332 4.58331 16.2248 4.58331 13.6248V10.5415C4.58331 13.1415 7.00831 14.9998 9.99998 14.9998C12.9916 14.9998 15.4166 13.1415 15.4166 10.5415Z" stroke="#1E63E9" stroke-width="1.5" stroke-linecap="round" stroke-linejoin="round"/>
<path d="M15.4166 6.37484C15.4166 7.13317 15.2083 7.83317 14.8416 8.43317C13.95 9.89984 12.1166 10.8332 9.99998 10.8332C7.88331 10.8332 6.04998 9.89984 5.15832 8.43317C4.79165 7.83317 4.58331 7.13317 4.58331 6.37484C4.58331 5.07484 5.19164 3.89984 6.16664 3.04984C7.14997 2.1915 8.49998 1.6665 9.99998 1.6665C11.5 1.6665 12.85 2.19151 13.8333 3.04151C14.8083 3.89984 15.4166 5.07484 15.4166 6.37484Z" stroke="#1E63E9" stroke-width="1.5" stroke-linecap="round" stroke-linejoin="round"/>
<path d="M15.4166 6.37484V10.5415C15.4166 13.1415 12.9916 14.9998 9.99998 14.9998C7.00831 14.9998 4.58331 13.1415 4.58331 10.5415V6.37484C4.58331 3.77484 7.00831 1.6665 9.99998 1.6665C11.5 1.6665 12.85 2.19151 13.8333 3.04151C14.8083 3.89984 15.4166 5.07484 15.4166 6.37484Z" stroke="#1E63E9" stroke-width="1.5" stroke-linecap="round" stroke-linejoin="round"/>
</svg>
