<svg width="50" height="50" viewBox="0 0 50 50" fill="none" xmlns="http://www.w3.org/2000/svg">
<rect width="50" height="50" rx="6" fill="#FEDCD0"/>
<path d="M40 9.3999H10C8.34397 9.40189 7.00198 10.7439 7 12.3999V33.9999C7.00198 35.6559 8.34397 36.9979 10 36.9999H28V39.9999C28.0001 40.2425 28.1462 40.4613 28.3704 40.5541C28.5946 40.647 28.8526 40.5956 29.0242 40.4241L31 38.4483L32.9758 40.4241C33.1474 40.5956 33.4054 40.647 33.6296 40.5541C33.8538 40.4613 33.9999 40.2425 34 39.9999V36.9999H40C41.656 36.9979 42.998 35.6559 43 33.9999V12.3999C42.998 10.7439 41.656 9.40189 40 9.3999ZM26.386 21.1389C26.2933 21.0961 26.2266 21.0115 26.2066 20.9114C26.1867 20.8112 26.2159 20.7075 26.2852 20.6325C26.8221 20.049 26.8221 19.1514 26.2852 18.5679C26.2157 18.4928 26.1864 18.3889 26.2065 18.2885C26.2266 18.1882 26.2935 18.1035 26.3866 18.0609C27.1053 17.7264 27.4484 16.8974 27.1762 16.1529C27.1408 16.057 27.1534 15.95 27.2101 15.865C27.2669 15.78 27.3609 15.7273 27.463 15.7233C28.2554 15.69 28.8901 15.0553 28.9234 14.2629C28.9274 14.1606 28.9801 14.0665 29.0653 14.0097C29.1505 13.9529 29.2577 13.9404 29.3536 13.9761C30.0983 14.2467 30.9263 13.9038 31.2616 13.1859C31.304 13.093 31.3885 13.0261 31.4887 13.0061C31.5889 12.9862 31.6926 13.0155 31.7674 13.0851C32.3511 13.6221 33.2489 13.6221 33.8326 13.0851C33.9076 13.0156 34.0114 12.9863 34.1117 13.0064C34.212 13.0265 34.2965 13.0935 34.339 13.1865C34.6737 13.9047 35.502 14.2476 36.2464 13.9761C36.3423 13.9404 36.4495 13.9529 36.5347 14.0097C36.6199 14.0665 36.6726 14.1606 36.6766 14.2629C36.7103 15.0563 37.3465 15.6915 38.14 15.7239C38.2421 15.7277 38.3361 15.7803 38.3929 15.8652C38.4497 15.9501 38.4623 16.0571 38.4268 16.1529C38.1544 16.8976 38.4978 17.7269 39.217 18.0609C39.3097 18.1037 39.3764 18.1883 39.3964 18.2884C39.4163 18.3886 39.3871 18.4923 39.3178 18.5673C38.7809 19.1508 38.7809 20.0484 39.3178 20.6319C39.3873 20.707 39.4166 20.8109 39.3965 20.9113C39.3764 21.0116 39.3095 21.0963 39.2164 21.1389C38.4977 21.4734 38.1546 22.3024 38.4268 23.0469C38.4622 23.1428 38.4496 23.2498 38.3929 23.3348C38.3361 23.4198 38.2421 23.4725 38.14 23.4765C37.3454 23.5084 36.7085 24.1453 36.6766 24.9399C36.6726 25.0422 36.6199 25.1363 36.5347 25.1931C36.4495 25.2499 36.3423 25.2624 36.2464 25.2267C35.5017 24.9558 34.6735 25.2988 34.3384 26.0169C34.2975 26.1107 34.2128 26.1781 34.1122 26.1969C34.0118 26.2179 33.9074 26.1886 33.8326 26.1183C33.2488 25.5816 32.3512 25.5816 31.7674 26.1183C31.6926 26.1885 31.5882 26.2178 31.4878 26.1969C31.3871 26.1781 31.3022 26.1107 31.261 26.0169C30.9266 25.2985 30.098 24.9555 29.3536 25.2273C29.2577 25.263 29.1505 25.2505 29.0653 25.1937C28.9801 25.1369 28.9274 25.0428 28.9234 24.9405C28.8916 24.1457 28.2548 23.5084 27.46 23.4759C27.3579 23.4721 27.2639 23.4195 27.2071 23.3346C27.1503 23.2497 27.1377 23.1427 27.1732 23.0469C27.446 22.303 27.104 21.474 26.386 21.1389ZM32.9764 32.3751L32.8 32.5515V26.9115C32.8803 26.9113 32.9577 26.9415 33.0166 26.9961C33.2947 27.2567 33.6615 27.4018 34.0426 27.4017C34.1445 27.4015 34.2462 27.3915 34.3462 27.3717C34.8236 27.2785 35.2262 26.9596 35.4262 26.5161C35.4965 26.3648 35.6711 26.2928 35.8276 26.3505C36.0102 26.4152 36.2035 26.4443 36.397 26.4363V32.5515L35.0212 31.1757C34.7869 30.9415 34.4071 30.9415 34.1728 31.1757L32.9764 32.3751ZM32.8 38.5515L31.4242 37.1757C31.1899 36.9415 30.8101 36.9415 30.5758 37.1757L29.2 38.5515V26.4351C29.3935 26.4432 29.5868 26.414 29.7694 26.3493C29.9256 26.2913 30.1001 26.3631 30.1702 26.5143C30.3707 26.9589 30.7749 27.2782 31.2538 27.3705C31.3678 27.3931 31.4839 27.4029 31.6 27.3999V33.9999C31.6001 34.2425 31.7462 34.4613 31.9704 34.5541C32.1946 34.647 32.4526 34.5956 32.6242 34.4241L32.8 34.2483V38.5515ZM41.8 33.9999C41.8 34.994 40.9941 35.7999 40 35.7999H34V33.0483L34.6 32.4483L36.5758 34.4241C36.7474 34.5956 37.0054 34.647 37.2296 34.5541C37.4538 34.4613 37.5999 34.2425 37.6 33.9999V25.7841C37.7675 25.549 37.8631 25.2703 37.8754 24.9819C37.8827 24.8155 38.0162 24.6823 38.1826 24.6753C38.669 24.6565 39.117 24.4058 39.3874 24.001C39.6577 23.5963 39.7178 23.0864 39.5488 22.6299C39.4915 22.4737 39.5635 22.2997 39.7144 22.2297C40.1569 22.0264 40.4752 21.6232 40.5702 21.1456C40.6652 20.6679 40.5255 20.1737 40.1944 19.8165C40.0816 19.6939 40.0816 19.5053 40.1944 19.3827C40.5255 19.0256 40.6652 18.5315 40.5702 18.0539C40.4752 17.5763 40.1569 17.1733 39.7144 16.9701C39.5631 16.9005 39.4907 16.7262 39.5482 16.5699C39.7172 16.1134 39.6571 15.6036 39.3868 15.1988C39.1164 14.794 38.6684 14.5433 38.182 14.5245C38.0156 14.5175 37.8821 14.3843 37.8748 14.2179C37.8566 13.7313 37.6062 13.283 37.2014 13.0123C36.7967 12.7416 36.2866 12.6814 35.83 12.8505C35.6738 12.9095 35.4986 12.8374 35.4292 12.6855C35.2259 12.243 34.8227 11.9247 34.3451 11.8297C33.8674 11.7347 33.3732 11.8744 33.016 12.2055C32.8936 12.3182 32.7052 12.3182 32.5828 12.2055C32.2257 11.8744 31.7316 11.7347 31.254 11.8297C30.7764 11.9247 30.3734 12.243 30.1702 12.6855C30.1006 12.8375 29.9253 12.9097 29.7688 12.8511C29.3122 12.682 28.8021 12.7422 28.3974 13.0129C27.9926 13.2836 27.7422 13.7319 27.724 14.2185C27.7167 14.3849 27.5832 14.5181 27.4168 14.5251C26.9304 14.5439 26.4824 14.7946 26.212 15.1994C25.9417 15.6042 25.8816 16.114 26.0506 16.5705C26.1079 16.7267 26.0359 16.9007 25.885 16.9707C25.4425 17.174 25.1242 17.5772 25.0292 18.0548C24.9342 18.5325 25.0739 19.0267 25.405 19.3839C25.5178 19.5065 25.5178 19.6951 25.405 19.8177C25.0739 20.1748 24.9342 20.6689 25.0292 21.1465C25.1242 21.6241 25.4425 22.0271 25.885 22.2303C26.0363 22.2999 26.1087 22.4742 26.0512 22.6305C25.8822 23.087 25.9423 23.5969 26.2126 24.0016C26.483 24.4064 26.931 24.6571 27.4174 24.6759C27.5838 24.6829 27.7173 24.8161 27.7246 24.9825C27.737 25.2707 27.8326 25.5491 28 25.7841V35.7999H10C9.00589 35.7999 8.2 34.994 8.2 33.9999V12.3999C8.2 11.4058 9.00589 10.5999 10 10.5999H40C40.9941 10.5999 41.8 11.4058 41.8 12.3999V33.9999Z" fill="#F0551C"/>
<path d="M13.6016 31C12.6075 31 11.8016 30.1941 11.8016 29.2V17.2C11.8016 16.2058 12.6075 15.4 13.6016 15.4H24.4016C24.7329 15.4 25.0016 15.1313 25.0016 14.8C25.0016 14.4686 24.7329 14.2 24.4016 14.2H13.6016C11.9455 14.2019 10.6035 15.5439 10.6016 17.2V29.2C10.6035 30.856 11.9455 32.198 13.6016 32.2H25.0016C25.3329 32.2 25.6016 31.9313 25.6016 31.6C25.6016 31.2686 25.3329 31 25.0016 31H13.6016Z" fill="#F0551C"/>
<path d="M14.2016 23.7999H22.6016C22.9329 23.7999 23.2016 23.5312 23.2016 23.1999C23.2016 22.8685 22.9329 22.5999 22.6016 22.5999H14.2016C13.8702 22.5999 13.6016 22.8685 13.6016 23.1999C13.6016 23.5312 13.8702 23.7999 14.2016 23.7999Z" fill="#F0551C"/>
<path d="M14.2016 21.3997H22.6016C22.9329 21.3997 23.2016 21.1311 23.2016 20.7997C23.2016 20.4683 22.9329 20.1997 22.6016 20.1997H14.2016C13.8702 20.1997 13.6016 20.4683 13.6016 20.7997C13.6016 21.1311 13.8702 21.3997 14.2016 21.3997Z" fill="#F0551C"/>
<path d="M14.2016 18.9998H22.6016C22.9329 18.9998 23.2016 18.7312 23.2016 18.3998C23.2016 18.0684 22.9329 17.7998 22.6016 17.7998H14.2016C13.8702 17.7998 13.6016 18.0684 13.6016 18.3998C13.6016 18.7312 13.8702 18.9998 14.2016 18.9998Z" fill="#F0551C"/>
<path d="M13.6478 29.4399C13.7433 29.6587 13.9593 29.8 14.198 29.7999C14.2806 29.8003 14.3624 29.7833 14.438 29.7501C14.9935 29.5437 15.504 29.2323 15.9416 28.8327C16.1041 28.6706 16.2461 28.4893 16.3646 28.2927C16.5937 28.5503 16.863 28.7691 17.162 28.9407C17.579 29.2134 18.098 29.2797 18.5702 29.1207C18.7512 29.0504 18.9149 28.942 19.0502 28.8027C19.3217 28.9724 19.6208 29.0932 19.934 29.1597L20.3876 29.2671C21.3135 29.5383 22.2755 29.6658 23.24 29.6451C23.4538 29.6297 23.6432 29.5013 23.7367 29.3084C23.8303 29.1156 23.8138 28.8874 23.6935 28.7099C23.5732 28.5325 23.3674 28.4327 23.1536 28.4481C22.3119 28.4591 21.4735 28.3418 20.6672 28.1001L20.2034 27.9903C19.6436 27.8613 19.4996 27.6357 19.4402 27.4767C19.3356 27.1975 19.042 27.0375 18.7507 27.1009C18.4594 27.1643 18.2589 27.4319 18.2798 27.7293C18.2865 27.8369 18.2356 27.9399 18.146 27.9999C18.0058 28.0177 17.8641 27.9812 17.75 27.8979C17.2648 27.5958 16.8999 27.1342 16.718 26.5923C16.6148 26.3133 16.3227 26.1521 16.0316 26.2134C15.7405 26.2748 15.5383 26.5402 15.5564 26.8371C15.5665 27.2663 15.3984 27.6805 15.092 27.9813C14.7588 28.2727 14.3743 28.4993 13.958 28.6497C13.812 28.7133 13.6973 28.8323 13.6391 28.9805C13.581 29.1287 13.5841 29.294 13.6478 29.4399V29.4399Z" fill="#F0551C"/>
<path d="M32.8 24.3998C35.451 24.3998 37.6 22.2508 37.6 19.5998C37.6 16.9488 35.451 14.7998 32.8 14.7998C30.149 14.7998 28 16.9488 28 19.5998C28.003 22.2495 30.1503 24.3968 32.8 24.3998ZM32.8 15.9998C34.7882 15.9998 36.4 17.6116 36.4 19.5998C36.4 21.588 34.7882 23.1998 32.8 23.1998C30.8118 23.1998 29.2 21.588 29.2 19.5998C29.202 17.6124 30.8126 16.0018 32.8 15.9998Z" fill="#F0551C"/>
</svg>
