<svg width="40" height="40" viewBox="0 0 40 40" fill="none" xmlns="http://www.w3.org/2000/svg">
<g clip-path="url(#clip0_843_22969)">
<path d="M38.6388 35.3554L33.5887 35.3553V29.1313L36.12 30.5966C36.5039 30.8189 36.9994 30.5331 36.9994 30.0896V18.7935C40.3474 16.5465 41.0404 11.5201 38.2698 8.44456C37.7711 7.87442 36.8893 8.64585 37.388 9.21598C40.6718 12.9391 37.9704 18.8942 33.0029 18.8783C29.7904 18.8783 27.1768 16.264 27.1768 13.0506C27.1201 9.0293 31.367 6.11364 35.0957 7.61181C35.8025 7.88419 36.2238 6.79087 35.517 6.51849C34.8953 6.27893 34.2489 6.13067 33.5888 6.0756V4.06573C33.5888 1.82776 31.7659 0.00707204 29.5252 0.00707204C29.3797 0.0287869 3.77581 -0.0339363 3.65482 0.0282402C1.60909 0.237422 0.0078125 1.96844 0.0078125 4.06604C0.0078125 4.38957 0.27011 4.65187 0.593646 4.65187H6.964V35.9412C6.964 38.1792 8.78688 39.9999 11.0276 39.9999H35.161C37.4017 39.9999 39.2246 38.1791 39.2246 35.9412C39.2247 35.6177 38.9625 35.3554 38.6388 35.3554ZM30.1782 19.4542C30.9763 19.8078 31.8524 20.0164 32.7729 20.0463V23.0594L30.1782 24.3349V19.4542ZM35.8277 29.0736L32.4519 27.1193V24.5228L33.6172 23.9499C33.8176 23.8514 33.9445 23.6475 33.9445 23.4242V19.987C34.6058 19.8976 35.238 19.7155 35.8277 19.4543V29.0736ZM26.6459 10.1254H12.5752V5.81456H28.1062V7.97003C28.1062 7.99706 28.1081 8.02369 28.1116 8.04978C27.5051 8.64327 27.0059 9.34588 26.6459 10.1254ZM1.23931 3.4802C1.92646 0.426841 6.21819 0.42895 6.90417 3.4802H1.23931ZM35.1611 38.8282H13.8816C14.4967 38.2216 14.9198 37.4209 15.0497 36.5268H17.5036C18.2611 36.5268 18.2611 35.3551 17.5036 35.3551H14.5061C14.149 35.3886 13.9538 35.5839 13.9203 35.9409C13.7604 39.7681 8.299 39.7758 8.13566 35.9412V4.06604C8.13566 2.93749 7.67215 1.91509 6.92533 1.17874H29.5251C31.1197 1.17874 32.417 2.4739 32.417 4.06573V6.0756C31.2704 6.17113 30.2014 6.54427 29.2777 7.1276V5.22872C29.2777 4.90519 29.0154 4.64289 28.6919 4.64289H11.9894C11.6658 4.64289 11.4035 4.90519 11.4035 5.22872V10.7113C11.4035 11.0348 11.6658 11.2971 11.9894 11.2971H26.2274C25.4563 14.091 26.7049 17.2535 29.0065 18.7934V25.2757C29.0065 25.7021 29.4691 25.9893 29.8508 25.8014L31.2802 25.0987V27.457C31.2802 27.6661 31.3916 27.8593 31.5725 27.9641L32.4171 28.453V35.3553L20.6224 35.3552C19.8649 35.3552 19.8649 36.5268 20.6224 36.5268L37.9932 36.5271C37.7213 37.8391 36.5548 38.8282 35.1611 38.8282Z" fill="#F0551C"/>
<path d="M13.0269 16.2652H22.9785C23.7542 16.2383 23.7536 15.1201 22.9785 15.0935H13.0269C12.2511 15.1204 12.2518 16.2385 13.0269 16.2652Z" fill="#F0551C"/>
<path d="M13.0269 20.1058H19.8197C20.5954 20.0789 20.5948 18.9607 19.8197 18.9341H13.0269C12.2511 18.961 12.2518 20.0791 13.0269 20.1058Z" fill="#F0551C"/>
<path d="M13.0269 23.9467H25.8858C26.6616 23.9198 26.6609 22.8017 25.8858 22.775H13.0269C12.2511 22.8019 12.2518 23.92 13.0269 23.9467Z" fill="#F0551C"/>
<path d="M21.5391 31.7527C21.9687 31.5795 22.3901 31.3798 22.7921 31.1492C23.4461 30.7741 22.8566 29.7613 22.2007 30.1375C21.8896 30.316 21.5661 30.4815 21.2352 30.6199C21.0238 30.7083 20.7982 30.7948 20.5716 30.8379C20.5069 30.3747 20.3956 29.7536 19.7912 29.564C19.2986 29.4095 18.8495 29.642 18.4239 29.8668C18.0713 30.0531 17.6862 30.2955 17.3368 30.4437C17.5914 29.1037 17.0335 27.855 15.4865 28.6788C14.3774 29.2695 13.381 30.2927 12.6134 31.2745C12.4171 31.5256 12.373 31.8574 12.6134 32.103C12.814 32.3081 13.2473 32.3518 13.4419 32.103C14.1042 31.2558 14.9153 30.417 15.8272 29.8384C15.9763 29.7601 16.1253 29.6818 16.2744 29.6036C16.2573 29.7577 16.2402 29.9119 16.2231 30.066C16.1576 30.4098 16.0487 30.7954 16.1555 31.1431C16.5285 32.3578 18.1137 31.37 18.7568 31.0185C18.9467 30.9146 19.1363 30.8044 19.3351 30.7184C19.3065 30.7309 19.3433 30.7275 19.3834 30.7161C19.388 30.7398 19.3912 30.7587 19.3915 30.7602C19.4375 31.1649 19.4751 31.628 19.8541 31.8698C20.3521 32.1954 21.0409 31.9536 21.5391 31.7527ZM19.3563 30.6188C19.3573 30.6181 19.3584 30.6191 19.3597 30.6211C19.3579 30.6195 19.3566 30.6185 19.3563 30.6188Z" fill="#F0551C"/>
<path d="M33.0048 9.05701C30.8051 9.05701 29.0156 10.8486 29.0156 13.0508C29.2348 18.349 36.7757 18.3474 36.9941 13.0508C36.994 10.8486 35.2044 9.05701 33.0048 9.05701ZM33.0048 15.8728C31.4512 15.8728 30.1873 14.6068 30.1873 13.0508C30.3421 9.30681 35.6681 9.30798 35.8224 13.0508C35.8223 14.6068 34.5583 15.8728 33.0048 15.8728Z" fill="#F0551C"/>
</g>
<defs>
<clipPath id="clip0_843_22969">
<rect width="40" height="40" fill="white"/>
</clipPath>
</defs>
</svg>
