<svg width="16" height="16" viewBox="0 0 16 16" fill="none" xmlns="http://www.w3.org/2000/svg">
<g clip-path="url(#clip0_183_7850)">
<path d="M4.74146 8.18841C4.27265 8.18841 3.81436 8.0512 3.42456 7.79412C3.03475 7.53705 2.73094 7.17166 2.55153 6.74416C2.37212 6.31666 2.32518 5.84625 2.41664 5.39242C2.5081 4.93859 2.73386 4.52172 3.06536 4.19452C3.39686 3.86733 3.81922 3.64451 4.27903 3.55423C4.73884 3.46396 5.21544 3.51029 5.64857 3.68737C6.08169 3.86444 6.4519 4.16431 6.71236 4.54905C6.97281 4.93379 7.11183 5.38612 7.11183 5.84885C7.11118 6.46914 6.86123 7.06384 6.41684 7.50245C5.97245 7.94106 5.36992 8.18776 4.74146 8.18841ZM4.74146 4.67906C4.50706 4.67906 4.27791 4.74767 4.08301 4.87621C3.88811 5.00474 3.7362 5.18744 3.6465 5.40119C3.55679 5.61494 3.53332 5.85014 3.57905 6.07706C3.62478 6.30397 3.73766 6.51241 3.90341 6.67601C4.06916 6.8396 4.28034 6.95102 4.51025 6.99615C4.74015 7.04129 4.97845 7.01812 5.19502 6.92958C5.41158 6.84105 5.59668 6.69111 5.72691 6.49874C5.85714 6.30637 5.92665 6.08021 5.92665 5.84885C5.92629 5.53871 5.80131 5.24138 5.57912 5.02208C5.35693 4.80278 5.05568 4.67942 4.74146 4.67906Z" fill="#888888"/>
<path d="M4.74074 15.9999C3.92458 15.9924 3.11031 15.9212 2.30554 15.7869C2.2278 15.7745 2.15334 15.7469 2.08652 15.7058C2.01969 15.6647 1.96184 15.6108 1.91635 15.5474C1.87085 15.4839 1.83862 15.4122 1.82154 15.3363C1.80446 15.2604 1.80288 15.182 1.81688 15.1055C1.83088 15.029 1.86018 14.956 1.90308 14.8908C1.94598 14.8257 2.00161 14.7696 2.06672 14.7259C2.13183 14.6821 2.20511 14.6517 2.28229 14.6362C2.35947 14.6208 2.43899 14.6207 2.51621 14.6359C3.25158 14.7569 3.99528 14.8218 4.74074 14.8302C5.8675 14.8296 7.60415 14.6394 8.2963 14.2224V13.5955C8.2963 12.6648 7.92169 11.7722 7.2549 11.114C6.5881 10.4559 5.68373 10.0862 4.74074 10.0862C3.79775 10.0862 2.89338 10.4559 2.22658 11.114C1.55979 11.7722 1.18519 12.6648 1.18519 13.5955V14.6222C1.18519 14.7774 1.12275 14.9261 1.01162 15.0358C0.900486 15.1455 0.749758 15.2071 0.592593 15.2071C0.435427 15.2071 0.284699 15.1455 0.173566 15.0358C0.0624337 14.9261 0 14.7774 0 14.6222V13.5955C0 12.3545 0.499469 11.1644 1.38853 10.2869C2.27759 9.40936 3.48342 8.91638 4.74074 8.91638C5.99806 8.91638 7.20389 9.40936 8.09295 10.2869C8.98201 11.1644 9.48148 12.3545 9.48148 13.5955V14.5053C9.48145 14.6604 9.41899 14.8091 9.30785 14.9188C8.26507 15.9477 5.32059 15.9999 4.74074 15.9999Z" fill="#888888"/>
<path d="M10.0743 5.84892C9.48827 5.84892 8.91541 5.6774 8.42816 5.35606C7.9409 5.03471 7.56113 4.57798 7.33687 4.0436C7.11261 3.50923 7.05394 2.92122 7.16826 2.35393C7.28259 1.78664 7.56478 1.26555 7.97916 0.856555C8.39354 0.447562 8.92149 0.169035 9.49625 0.056194C10.071 -0.0566469 10.6668 0.00126712 11.2082 0.222612C11.7496 0.443958 12.2123 0.818793 12.5379 1.29972C12.8635 1.78064 13.0373 2.34606 13.0373 2.92446C13.0363 3.69979 12.7239 4.44311 12.1684 4.99135C11.6129 5.5396 10.8598 5.848 10.0743 5.84892ZM10.0743 1.16978C9.72268 1.16978 9.37897 1.27269 9.08661 1.4655C8.79426 1.65831 8.56639 1.93235 8.43184 2.25297C8.29728 2.5736 8.26208 2.92641 8.33067 3.26678C8.39927 3.60715 8.56859 3.91981 8.81721 4.1652C9.06584 4.4106 9.38261 4.57771 9.72746 4.64542C10.0723 4.71312 10.4298 4.67837 10.7546 4.54557C11.0795 4.41276 11.3571 4.18786 11.5525 3.8993C11.7478 3.61075 11.8521 3.2715 11.8521 2.92446C11.8515 2.45925 11.6641 2.01324 11.3308 1.68428C10.9975 1.35533 10.5456 1.1703 10.0743 1.16978Z" fill="#888888"/>
<path d="M10.7114 15.7753C10.5567 15.7751 10.4081 15.715 10.2976 15.6081C10.1871 15.5011 10.1234 15.3557 10.12 15.203C10.1167 15.0503 10.1741 14.9023 10.2798 14.7908C10.3856 14.6792 10.5314 14.613 10.686 14.6061C12.6223 14.5216 14.1594 14.204 14.8156 13.7634V12.8677C14.8142 11.6272 14.3142 10.4378 13.4255 9.56065C12.5367 8.68345 11.3318 8.19001 10.0749 8.18859C9.31868 8.18622 8.57313 8.36445 7.90184 8.70809C7.83268 8.74335 7.75716 8.76481 7.6796 8.77126C7.60204 8.77771 7.52395 8.76902 7.44979 8.74568C7.30001 8.69855 7.17534 8.59462 7.1032 8.45676C7.06748 8.3885 7.04574 8.31397 7.0392 8.23741C7.03267 8.16086 7.04147 8.08378 7.06512 8.01058C7.11287 7.86276 7.21817 7.73971 7.35784 7.66851C8.26134 7.20907 9.26935 6.98663 10.2851 7.02255C11.3008 7.05847 12.2901 7.35154 13.1579 7.87361C14.0258 8.39568 14.7431 9.12922 15.2409 10.0038C15.7388 10.8784 16.0004 11.8646 16.0008 12.8677V14.0375C16.0008 14.1926 15.9383 14.3414 15.8272 14.451C14.8625 15.4038 12.5274 15.6968 10.738 15.7747L10.7114 15.7753Z" fill="#888888"/>
</g>
<defs>
<clipPath id="clip0_183_7850">
<rect width="16" height="16" fill="white"/>
</clipPath>
</defs>
</svg>
