<svg width="60" height="60" viewBox="0 0 60 60" fill="none" xmlns="http://www.w3.org/2000/svg">
<path opacity="0.4" d="M30 55C43.8071 55 55 43.8071 55 30C55 16.1929 43.8071 5 30 5C16.1929 5 5 16.1929 5 30C5 43.8071 16.1929 55 30 55Z" fill="url(#paint0_linear_625_19857)"/>
<path d="M30 34.375C31.025 34.375 31.875 33.525 31.875 32.5V20C31.875 18.975 31.025 18.125 30 18.125C28.975 18.125 28.125 18.975 28.125 20V32.5C28.125 33.525 28.975 34.375 30 34.375Z" fill="url(#paint1_linear_625_19857)"/>
<path d="M32.3 39.05C32.175 38.75 32 38.475 31.775 38.225C31.525 38 31.25 37.825 30.95 37.7C30.35 37.45 29.65 37.45 29.05 37.7C28.75 37.825 28.475 38 28.225 38.225C28 38.475 27.825 38.75 27.7 39.05C27.575 39.35 27.5 39.675 27.5 40C27.5 40.325 27.575 40.6499 27.7 40.9499C27.825 41.2749 28 41.5249 28.225 41.7749C28.475 41.9999 28.75 42.175 29.05 42.3C29.35 42.425 29.675 42.5 30 42.5C30.325 42.5 30.65 42.425 30.95 42.3C31.25 42.175 31.525 41.9999 31.775 41.7749C32 41.5249 32.175 41.2749 32.3 40.9499C32.425 40.6499 32.5 40.325 32.5 40C32.5 39.675 32.425 39.35 32.3 39.05Z" fill="url(#paint2_linear_625_19857)"/>
<defs>
<linearGradient id="paint0_linear_625_19857" x1="30" y1="5" x2="30" y2="55" gradientUnits="userSpaceOnUse">
<stop stop-color="#67EB93"/>
<stop offset="1" stop-color="#2AA4D2"/>
</linearGradient>
<linearGradient id="paint1_linear_625_19857" x1="30" y1="18.125" x2="30" y2="34.375" gradientUnits="userSpaceOnUse">
<stop stop-color="#5FF184"/>
<stop offset="1" stop-color="#0B77FF"/>
</linearGradient>
<linearGradient id="paint2_linear_625_19857" x1="30" y1="37.5125" x2="30" y2="42.5" gradientUnits="userSpaceOnUse">
<stop stop-color="#5FF184"/>
<stop offset="1" stop-color="#0B77FF"/>
</linearGradient>
</defs>
</svg>
