<svg width="40" height="40" viewBox="0 0 40 40" fill="none" xmlns="http://www.w3.org/2000/svg">
<circle cx="20" cy="20" r="20" fill="white"/>
<g clip-path="url(#clip0_1228_9650)">
<path d="M31.5001 14.5061C31.3642 14.0213 31.0995 13.5824 30.7341 13.2361C30.3584 12.8791 29.8979 12.6237 29.3961 12.4941C27.5181 11.9991 19.9941 11.9991 19.9941 11.9991C16.8575 11.9634 13.7216 12.1204 10.6041 12.4691C10.1023 12.6083 9.64269 12.8694 9.26613 13.2291C8.89613 13.5851 8.62813 14.0241 8.48813 14.5051C8.15182 16.3168 7.98842 18.1564 8.00013 19.9991C7.98813 21.8401 8.15113 23.6791 8.48813 25.4931C8.62513 25.9721 8.89213 26.4091 9.26313 26.7621C9.63413 27.1151 10.0961 27.3701 10.6041 27.5051C12.5071 27.9991 19.9941 27.9991 19.9941 27.9991C23.1348 28.0348 26.2747 27.8779 29.3961 27.5291C29.8979 27.3995 30.3584 27.1441 30.7341 26.7871C31.1041 26.4341 31.3671 25.9951 31.4991 25.5171C31.8442 23.7061 32.012 21.8657 32.0001 20.0221C32.0261 18.1707 31.8585 16.3217 31.5001 14.5051V14.5061ZM17.6021 23.4231V16.5761L23.8621 20.0001L17.6021 23.4231Z" fill="#303030"/>
</g>
<defs>
<clipPath id="clip0_1228_9650">
<rect width="24" height="24" fill="white" transform="translate(8 8)"/>
</clipPath>
</defs>
</svg>
