<svg width="50" height="50" viewBox="0 0 50 50" fill="none" xmlns="http://www.w3.org/2000/svg">
<path d="M39.5833 18.7501C39.5833 21.7709 38.6875 24.5418 37.1458 26.8543C34.8958 30.1876 31.3333 32.5418 27.1875 33.1459C26.4792 33.2709 25.75 33.3334 25 33.3334C24.25 33.3334 23.5208 33.2709 22.8125 33.1459C18.6667 32.5418 15.1042 30.1876 12.8542 26.8543C11.3125 24.5418 10.4167 21.7709 10.4167 18.7501C10.4167 10.6876 16.9375 4.16675 25 4.16675C33.0625 4.16675 39.5833 10.6876 39.5833 18.7501Z" stroke="#1E63E9" stroke-width="3.5" stroke-linecap="round" stroke-linejoin="round"/>
<path d="M44.2708 38.4792L40.8333 39.2916C40.0625 39.4791 39.4583 40.0625 39.2917 40.8334L38.5625 43.8959C38.1667 45.5625 36.0417 46.0625 34.9375 44.75L25 33.3333L15.0625 44.7708C13.9583 46.0833 11.8333 45.5833 11.4375 43.9167L10.7083 40.8541C10.5208 40.0833 9.91667 39.4792 9.16667 39.3125L5.72917 38.5C4.14583 38.125 3.58333 36.1458 4.72917 35L12.8542 26.875C15.1042 30.2083 18.6667 32.5625 22.8125 33.1667C23.5208 33.2917 24.25 33.3542 25 33.3542C25.75 33.3542 26.4792 33.2917 27.1875 33.1667C31.3333 32.5625 34.8958 30.2083 37.1458 26.875L45.2708 35C46.4167 36.125 45.8542 38.1042 44.2708 38.4792Z" stroke="#1E63E9" stroke-width="3.5" stroke-linecap="round" stroke-linejoin="round"/>
<path d="M26.2083 12.4583L27.4375 14.9166C27.6042 15.2499 28.0417 15.5832 28.4375 15.6457L30.6667 16.0207C32.0833 16.2499 32.4167 17.2916 31.3958 18.3124L29.6667 20.0416C29.375 20.3332 29.2083 20.8958 29.3125 21.3124L29.8125 23.4582C30.2083 25.1457 29.3125 25.8124 27.8125 24.9165L25.7292 23.6874C25.3542 23.4582 24.7292 23.4582 24.3542 23.6874L22.2708 24.9165C20.7708 25.7915 19.875 25.1457 20.2708 23.4582L20.7708 21.3124C20.8542 20.9166 20.7083 20.3332 20.4167 20.0416L18.6875 18.3124C17.6667 17.2916 18 16.2707 19.4167 16.0207L21.6458 15.6457C22.0208 15.5832 22.4583 15.2499 22.625 14.9166L23.8542 12.4583C24.4583 11.1249 25.5417 11.1249 26.2083 12.4583Z" stroke="#1E63E9" stroke-width="3.5" stroke-linecap="round" stroke-linejoin="round"/>
</svg>
