<svg width="50" height="50" viewBox="0 0 50 50" fill="none" xmlns="http://www.w3.org/2000/svg">
<path d="M45.8333 24.7709V26.6251C45.8333 34.0417 43.9792 35.8751 36.5833 35.8751H13.4167C6.02082 35.8751 4.16666 34.0209 4.16666 26.6251V13.4167C4.16666 6.02091 6.02082 4.16675 13.4167 4.16675H16.6667" stroke="#1E63E9" stroke-width="3.5" stroke-linecap="round" stroke-linejoin="round"/>
<path d="M25 35.875V45.8333" stroke="#1E63E9" stroke-width="3.5" stroke-linecap="round" stroke-linejoin="round"/>
<path d="M4.16666 27.0833H45.8333" stroke="#1E63E9" stroke-width="3.5" stroke-linecap="round" stroke-linejoin="round"/>
<path d="M15.625 45.8333H34.375" stroke="#1E63E9" stroke-width="3.5" stroke-linecap="round" stroke-linejoin="round"/>
<path d="M37.2083 19.5208H27.2917C24.4167 19.5208 23.4583 17.6042 23.4583 15.6875V8.35417C23.4583 6.0625 25.3333 4.1875 27.625 4.1875H37.2083C39.3333 4.1875 41.0417 5.89583 41.0417 8.02083V15.6875C41.0417 17.8125 39.3333 19.5208 37.2083 19.5208Z" stroke="#1E63E9" stroke-width="3.5" stroke-linecap="round" stroke-linejoin="round"/>
<path d="M43.5625 16.5L41.0417 14.7292V8.97916L43.5625 7.20832C44.8125 6.35416 45.8333 6.87499 45.8333 8.39582V15.3333C45.8333 16.8542 44.8125 17.375 43.5625 16.5Z" stroke="#1E63E9" stroke-width="3.5" stroke-linecap="round" stroke-linejoin="round"/>
</svg>
