<svg width="40" height="40" viewBox="0 0 40 40" fill="none" xmlns="http://www.w3.org/2000/svg">
<path d="M37.8498 10.4696C36.9474 10.096 35.6559 10.3487 34.953 11.7875C34.9511 11.7916 34.949 11.7956 34.9471 11.7997L32.3591 17.3404C31.9747 17.1808 31.5504 17.1406 31.1328 17.2283C30.582 17.344 30.11 17.6674 29.8038 18.1384C29.6103 18.4362 28.9739 19.454 28.3002 20.5315C27.6604 21.5547 26.9991 22.6126 26.8132 22.8983C26.4311 23.4863 25.723 24.1624 24.9731 24.8782C22.8936 26.8632 20.0922 29.538 20.4894 33.7244H19.508C19.6903 31.8106 19.2226 30.031 18.0863 28.305C17.849 27.9447 17.3646 27.845 17.0042 28.082C16.6439 28.3194 16.5439 28.8038 16.7812 29.1642C17.7544 30.6426 18.1251 32.1028 17.9359 33.7244H11.442L11.5264 32.0328C11.5364 31.8326 11.4691 31.6362 11.3383 31.4843L8.59711 28.2999C6.87661 26.3014 6.52176 25.6715 5.67647 23.116C4.9829 21.0188 4.17924 18.3312 3.53348 16.1718C3.04576 14.5406 2.66015 13.2511 2.47484 12.7279C2.32007 12.2735 2.52374 12.0051 2.7457 11.9131C3.06287 11.7813 3.4045 11.994 3.63778 12.4677L6.50927 18.6151C6.40466 19.0226 6.40474 19.545 6.59051 20.2134C7.12636 22.1411 7.83384 24.0899 8.53148 25.56C8.71632 25.9499 9.18217 26.1159 9.57216 25.9308C9.96191 25.7459 10.128 25.28 9.943 24.8902C9.28216 23.4974 8.6089 21.6402 8.09587 19.7948C7.95095 19.2732 7.96899 18.9487 8.14978 18.8302C8.26555 18.7543 8.40531 18.7284 8.54343 18.7575C8.6846 18.7871 8.80538 18.8698 8.88358 18.9902C9.27388 19.5906 9.65395 20.2246 10.0565 20.8959C10.695 21.961 11.3553 23.0623 12.0588 24.0158C12.315 24.3628 12.804 24.4367 13.1513 24.1806C13.4984 23.9243 13.5723 23.4352 13.316 23.088C12.6568 22.1948 12.0162 21.126 11.3966 20.0924C11.0046 19.4387 10.5994 18.7627 10.1937 18.1387C9.88746 17.6674 9.41544 17.344 8.8646 17.2284C8.44679 17.1406 8.02267 17.1808 7.63838 17.3406L5.05032 11.7998C5.04844 11.7957 5.04642 11.7917 5.04446 11.7876C4.34159 10.3489 3.05022 10.096 2.14782 10.4697C1.23393 10.8481 0.545591 11.9208 0.998393 13.2385C0.999253 13.241 1.00003 13.2435 1.00097 13.246C1.17245 13.7294 1.57291 15.0687 2.03664 16.6194C2.6853 18.7886 3.49255 21.4882 4.19315 23.6066C5.10399 26.3606 5.55539 27.1615 7.41299 29.3194L9.95043 32.2668L9.87778 33.7244H9.06327C8.63187 33.7244 8.28203 34.0743 8.28203 34.5056V39.2182C8.28203 39.6496 8.63187 39.9994 9.06327 39.9994H30.9343C31.3656 39.9994 31.7155 39.6496 31.7155 39.2182V34.5056C31.7155 34.0743 31.3656 33.7244 30.9343 33.7244H30.1198L30.0471 32.2668L32.5846 29.3194C34.4422 27.1615 34.8935 26.3606 35.8043 23.6066C36.5051 21.4878 37.3124 18.7878 37.9611 16.6184C38.4247 15.068 38.8251 13.7292 38.9964 13.246C38.9974 13.2435 38.9982 13.2411 38.9991 13.2386C39.4519 11.9208 38.7636 10.8482 37.8498 10.4696ZM9.8445 35.287H19.2175V38.437H9.8445V35.287ZM30.1531 38.437H20.7799V35.287H30.1531V38.437ZM37.5224 12.7279C37.3372 13.251 36.9518 14.54 36.4642 16.1707C35.8183 18.3306 35.0146 21.0186 34.3208 23.1159C33.4756 25.6715 33.1208 26.3014 31.4003 28.2999L28.6591 31.4842C28.5283 31.6362 28.461 31.8326 28.471 32.0327L28.5554 33.7243H22.0602C21.6543 30.2062 23.9846 27.9818 26.0519 26.0082C26.8695 25.2278 27.6418 24.4906 28.1232 23.7498C28.3166 23.4523 28.952 22.4359 29.625 21.3598C30.2654 20.3354 30.9278 19.2762 31.1138 18.9899C31.192 18.8695 31.3128 18.787 31.4539 18.7572C31.592 18.7283 31.7319 18.754 31.8476 18.83C32.0284 18.9486 32.0466 19.2731 31.9015 19.7947C31.3887 21.6399 30.7152 23.4971 30.0544 24.89C29.8694 25.2799 30.0355 25.7458 30.4252 25.9307C30.8152 26.1159 31.2811 25.9496 31.4659 25.5599C32.1636 24.0896 32.871 22.1407 33.4068 20.2132C33.5927 19.5447 33.5928 19.0224 33.4882 18.6148L36.3595 12.4676C36.5927 11.994 36.9342 11.7815 37.2516 11.9129C37.4736 12.0051 37.6774 12.2735 37.5224 12.7279Z" fill="#FF8B0D"/>
<path d="M13.5909 12.2299L13.0843 16.0922C12.9877 16.5937 13.0548 17.101 13.279 17.5613C13.6849 18.3947 14.5223 18.8803 15.3925 18.8803C15.7366 18.8803 16.0862 18.8042 16.4159 18.6438L19.9613 16.9179L23.6022 18.6525C24.0138 18.849 24.4741 18.9195 24.9329 18.8558C25.553 18.7701 26.1027 18.4479 26.4807 17.9487C26.8586 17.4495 27.0194 16.833 26.9335 16.2118L26.3871 12.3023L29.0826 9.45914C29.4477 9.11094 29.6863 8.66432 29.7734 8.16597C29.8811 7.54857 29.7421 6.92607 29.3817 6.41327C29.0213 5.90049 28.4829 5.55869 27.8673 5.45127L23.9822 4.76301L22.057 1.22169C22.057 1.22162 22.0569 1.22146 22.0569 1.2213C21.8375 0.818501 21.5074 0.491321 21.1021 0.275233C20.5503 -0.0191339 19.9167 -0.0810855 19.3185 0.101176C18.7202 0.28328 18.2286 0.687489 17.9341 1.23958L16.079 4.72169L12.1742 5.44737C11.6979 5.52205 11.2624 5.73838 10.9141 6.07353C10.463 6.50742 10.2079 7.09099 10.1958 7.71685C10.1837 8.34269 10.4158 8.93579 10.8504 9.38758L13.5909 12.2299ZM11.9974 7.19959C12.1146 7.08678 12.2612 7.01435 12.4212 6.9903C12.43 6.98897 12.4389 6.98749 12.4477 6.98585L16.7345 6.18922C16.9682 6.14571 17.1694 5.99829 17.2813 5.78845L19.3129 1.97465C19.4109 1.79098 19.5745 1.65661 19.7735 1.59598C19.8485 1.57309 19.925 1.56177 20.0013 1.56177C20.1274 1.56177 20.2523 1.5927 20.3669 1.65387C20.5018 1.72582 20.6117 1.83449 20.6843 1.96801L22.7891 5.83986C22.9027 6.04867 23.1053 6.19454 23.3393 6.23594L27.5967 6.99014C27.803 7.02607 27.9829 7.14029 28.1033 7.31162C28.2237 7.48294 28.2702 7.6909 28.2342 7.89722C28.2046 8.0666 28.1227 8.21785 27.9975 8.33488C27.9859 8.34573 27.9746 8.3569 27.9637 8.36854L24.9945 11.5003C24.8309 11.6728 24.7547 11.9104 24.7877 12.1459L25.3859 16.4269C25.445 16.8538 25.1458 17.2491 24.7191 17.3082C24.5638 17.3297 24.4103 17.3069 24.2747 17.2421L20.2937 15.3455C20.079 15.2434 19.8294 15.2443 19.6157 15.3485L15.7319 17.2389C15.3434 17.4282 14.8731 17.2658 14.6838 16.8771C14.6074 16.7203 14.5855 16.5473 14.6206 16.3769C14.6246 16.3585 14.6277 16.3397 14.6301 16.3209L15.1889 12.0601C15.2198 11.8243 15.1418 11.5874 14.9767 11.4162L11.9758 8.30378C11.8312 8.15347 11.7538 7.95582 11.7578 7.74723C11.7619 7.53871 11.8469 7.34427 11.9974 7.19959Z" fill="#FF8B0D"/>
<path d="M19.133 12.3611C18.7015 12.3611 18.3518 12.711 18.3518 13.1424C18.3518 13.5738 18.7015 13.9235 19.133 13.9235H20.8652C21.2966 13.9235 21.6464 13.5738 21.6464 13.1424C21.6464 12.711 21.2966 12.3611 20.8652 12.3611H20.7803V6.89258C20.7803 6.61353 20.6314 6.35556 20.3896 6.21604C20.1479 6.07642 19.8502 6.07642 19.6084 6.21604L18.7423 6.71602C18.3687 6.9318 18.2406 7.40952 18.4564 7.78318C18.616 8.05974 18.9194 8.20185 19.2178 8.16934V12.361H19.133V12.3611Z" fill="#FF8B0D"/>
<path d="M15.1364 25.291C14.7049 25.291 14.3555 25.6409 14.3555 26.0722C14.3555 26.5037 14.7055 26.8535 15.1369 26.8535C15.5684 26.8535 15.9181 26.5037 15.9181 26.0722C15.9181 25.6409 15.5683 25.291 15.1369 25.291H15.1364Z" fill="#FF8B0D"/>
</svg>
