<svg width="50" height="50" viewBox="0 0 50 50" fill="none" xmlns="http://www.w3.org/2000/svg">
<rect width="50" height="50" rx="6" fill="#FEDCD0"/>
<path d="M22.6078 9.99995C22.9678 9.99995 23.2078 9.75998 23.2078 9.39998V7.59998C23.2078 7.23998 22.9678 7 22.6078 7C22.2478 7 22.0078 7.23998 22.0078 7.59998V9.39998C22.0078 9.75991 22.2478 9.99995 22.6078 9.99995Z" fill="#F0551C"/>
<path d="M16.0687 14.2H17.8687C18.1688 14.2 18.4687 13.96 18.4687 13.6C18.4687 13.24 18.2287 13 17.8687 13H16.0687C15.7087 13 15.4688 13.24 15.4688 13.6C15.4688 13.96 15.7087 14.2 16.0687 14.2Z" fill="#F0551C"/>
<path d="M26.207 13.6C26.207 13.96 26.447 14.2 26.807 14.2H28.607C28.907 14.2 29.207 13.96 29.207 13.6C29.207 13.24 28.967 13 28.607 13H26.807C26.4471 12.9999 26.207 13.24 26.207 13.6Z" fill="#F0551C"/>
<path d="M25.6078 11.1999C25.7878 11.1999 25.9079 11.1399 26.0278 11.0199L27.2278 9.81984C27.4678 9.57986 27.4678 9.21986 27.2278 8.97981C26.9879 8.73977 26.6279 8.73984 26.3878 8.97981L25.1878 10.1798C24.9478 10.4198 24.9478 10.7798 25.1878 11.0199C25.3078 11.1399 25.4278 11.1999 25.6078 11.1999Z" fill="#F0551C"/>
<path d="M18.6495 11.0198C18.7696 11.1398 18.8895 11.1998 19.0695 11.1998C19.1895 11.1998 19.3695 11.1398 19.4895 11.0198C19.7295 10.7798 19.7295 10.4198 19.4895 10.1797L18.2895 8.97979C18.0496 8.73981 17.6896 8.73981 17.4495 8.97979C17.2095 9.21976 17.2095 9.57976 17.4495 9.81981L18.6495 11.0198Z" fill="#F0551C"/>
<path d="M34.9078 23.1999C34.3678 23.1999 33.8278 23.3799 33.4078 23.6799V23.4999C33.4078 22 32.2078 20.7999 30.7078 20.7999C30.1678 20.7999 29.6278 20.9799 29.2079 21.28V21.1C29.2079 19.6 28.0078 18.4 26.5079 18.4C25.9679 18.4 25.4279 18.58 25.0079 18.88V13.9599C25.0079 12.46 23.8079 11.2 22.3079 11.2C20.8079 11.2 19.6079 12.46 19.6079 13.9599V25.8399C18.3479 23.9799 15.8279 23.0199 13.9079 23.8C13.6078 23.92 13.3679 24.1 13.1879 24.16C12.3478 24.7599 12.4079 25.42 12.4079 25.6599C12.3479 26.0199 12.4079 26.0799 13.1879 26.9799C14.0879 28.0599 16.0079 30.3399 17.2078 32.6199C17.2678 32.6799 18.6478 34.8999 20.2079 36.6399V38.1999C20.2079 41.0199 22.4278 42.9999 25.6079 42.9999H30.9479C33.4679 42.9999 35.4479 41.5599 35.9279 39.3399C36.061 38.7186 36.1941 38.3605 36.3029 38.1672C36.3376 38.12 36.3725 38.0711 36.4079 38.0199C36.9479 37.4199 37.6079 35.9199 37.6079 33.8799V25.8999C37.6078 24.3999 36.4078 23.1999 34.9078 23.1999ZM30.9478 41.7999H25.6078C23.5078 41.7999 21.4078 40.6599 21.4078 38.1999V38.038C21.5786 38.2187 21.7583 38.3941 21.9478 38.5599C22.0078 38.6199 22.1878 38.6799 22.3078 38.6799C22.4878 38.6799 22.6078 38.5599 22.7278 38.4399C22.9678 38.2 22.9078 37.84 22.6678 37.5999C22.2478 37.2399 21.9478 36.8199 21.5878 36.3999C21.5278 36.2799 21.4078 36.0999 21.2878 35.9799C21.2378 35.9132 21.169 35.8611 21.0909 35.8248C19.6379 34.1597 18.2278 31.9599 18.2278 31.9599C16.9678 29.6199 14.9878 27.2799 14.0878 26.1399C13.9078 25.9599 13.7278 25.72 13.6078 25.6C13.6078 25.4799 13.6078 25.36 13.8477 25.18C14.0877 25.06 14.2077 25 14.3278 24.94C15.6477 24.4 17.8678 25.12 18.8278 26.8L19.5869 28.0652C19.596 28.1441 19.6221 28.2239 19.6678 28.2999L20.2678 29.4999C20.3878 29.6799 20.5678 29.7999 20.8078 29.7999C20.9278 29.7999 21.0477 29.7999 21.0477 29.74C21.3478 29.6199 21.4677 29.2599 21.2877 28.96L20.8077 28V13.9599C20.8077 13.1199 21.5277 12.3999 22.3077 12.3999C23.1477 12.3999 23.8076 13.1199 23.8076 13.9599V20.9799C23.8076 20.9799 23.8076 21.0399 23.8076 21.1V21.4V28.6C23.8076 28.96 24.0476 29.2 24.4076 29.2C24.7676 29.2 25.0076 28.96 25.0076 28.6V21.3999V20.9799C25.0676 20.2 25.7276 19.5999 26.5076 19.5999C27.3476 19.5999 28.0075 20.2599 28.0075 21.0999V23.1999V23.4999V27.9999C28.0075 28.3599 28.2475 28.5999 28.6075 28.5999C28.9675 28.5999 29.2075 28.3599 29.2075 27.9999V23.4999C29.2075 22.6599 29.8675 22 30.7075 22C31.5474 22 32.2075 22.66 32.2075 23.4999V25.6V25.9V28.06C32.2075 28.42 32.4474 28.66 32.8074 28.66C33.1674 28.66 33.4074 28.42 33.4074 28.06V25.8999C33.4074 25.0599 34.0674 24.3999 34.9074 24.3999C35.7474 24.3999 36.4074 25.0599 36.4074 25.8999V33.8199C36.4074 35.6396 35.8333 36.8271 35.5275 37.2148C35.4981 37.24 35.4711 37.2683 35.4474 37.2999C35.0874 37.7799 34.9674 37.9599 33.8274 38.2599C33.5274 38.3198 33.3474 38.6798 33.4074 38.9799C33.5274 39.2198 33.7674 39.3998 34.0074 39.3998C34.0674 39.3998 34.1274 39.3998 34.1274 39.4598C34.332 39.404 34.5149 39.3496 34.68 39.2947C34.183 41.1272 32.3974 41.7999 30.9478 41.7999Z" fill="#F0551C"/>
</svg>
