<svg width="40" height="36" viewBox="0 0 40 36" fill="none" xmlns="http://www.w3.org/2000/svg">
<path d="M38.2423 15.0696H37.6566V13.3115V7.06147C37.6566 5.01522 35.9919 3.35046 33.9457 3.35046H17.8536L6.99717 0.248593C6.99405 0.247733 6.99085 0.247264 6.98772 0.246405C6.98452 0.245546 6.98147 0.244296 6.97827 0.243515C6.97171 0.241874 6.96522 0.241093 6.95874 0.239686C6.94866 0.237577 6.93858 0.23539 6.9285 0.233749C6.91936 0.232265 6.91038 0.231327 6.90124 0.230233C6.89061 0.228983 6.88006 0.22789 6.86952 0.227265C6.86092 0.226796 6.85241 0.226718 6.84381 0.226561C6.83288 0.226405 6.82202 0.226327 6.81116 0.226796C6.80311 0.227108 6.79506 0.227889 6.7871 0.228514C6.77592 0.229452 6.76475 0.230468 6.75374 0.232108C6.74624 0.233202 6.73882 0.234608 6.73139 0.235936C6.71999 0.237968 6.70874 0.240155 6.69757 0.242889C6.69061 0.244608 6.68382 0.246561 6.67694 0.248514C6.66553 0.251796 6.65428 0.255155 6.64303 0.259061C6.63671 0.261327 6.63046 0.263749 6.62413 0.266249C6.6128 0.270624 6.60155 0.275233 6.59053 0.280311C6.58467 0.283046 6.57897 0.286014 6.57319 0.288905C6.56218 0.294452 6.55132 0.300077 6.54069 0.306405C6.53514 0.309608 6.52983 0.313046 6.52436 0.316483C6.51389 0.323046 6.50358 0.329764 6.49358 0.33703C6.48835 0.34078 6.48327 0.344842 6.47811 0.348827C6.4685 0.356249 6.45897 0.363827 6.44983 0.371874C6.44467 0.376405 6.43975 0.381171 6.43475 0.385858C6.42616 0.393983 6.41764 0.402108 6.40952 0.410702C6.40444 0.416092 6.39967 0.421717 6.39475 0.427342C6.38733 0.435858 6.37999 0.444452 6.37303 0.453436C6.36803 0.45992 6.36335 0.466561 6.35858 0.473202C6.35241 0.481874 6.34632 0.490623 6.34069 0.499608C6.33585 0.507264 6.33139 0.515233 6.32694 0.523123C6.32202 0.531795 6.3171 0.540545 6.31264 0.549529C6.30827 0.558279 6.30436 0.567264 6.30038 0.576248C6.29647 0.585076 6.29264 0.593904 6.28921 0.602967C6.28561 0.612498 6.28249 0.622264 6.27928 0.632108C6.27725 0.638436 6.27475 0.644373 6.27288 0.650779C6.27194 0.653982 6.27155 0.657107 6.27069 0.660232C6.26983 0.663435 6.26858 0.666483 6.2678 0.669686L5.5978 3.35031H3.71132C1.66922 3.35031 0.00734374 5.00835 0.000624999 7.04897C0.000546874 7.05319 0 7.05717 0 7.06131V27.3738C0 27.6972 0.263281 27.9597 0.585936 27.9597C0.909373 27.9597 1.17187 27.6972 1.17187 27.3738V9.76389C1.83625 10.3886 2.72953 10.7725 3.71132 10.7725H33.9457C33.9464 10.7725 33.947 10.7724 33.9478 10.7724C35.3468 10.7735 36.4848 11.9121 36.4848 13.3115V17.4134H30.0385C30.0381 17.4134 30.0378 17.4135 30.0374 17.4135C30.0205 17.4135 30.0036 17.4145 29.9868 17.416C29.9681 17.4176 29.9497 17.4203 29.9316 17.4236C29.9288 17.4241 29.9262 17.4243 29.9235 17.4249C29.9081 17.4279 29.8931 17.432 29.8782 17.4362C29.8749 17.4372 29.8716 17.4378 29.8684 17.4388C29.8551 17.4429 29.8422 17.4477 29.8293 17.4526C29.8244 17.4545 29.8194 17.4561 29.8145 17.4581C29.8037 17.4625 29.7933 17.4678 29.7829 17.4729C29.776 17.4761 29.7691 17.4792 29.7624 17.4827C29.7542 17.487 29.7466 17.4919 29.7388 17.4966C29.7301 17.5018 29.7213 17.5068 29.7128 17.5124C29.7071 17.5161 29.7019 17.5204 29.6964 17.5244C29.6864 17.5316 29.6763 17.5387 29.6668 17.5466C29.6627 17.55 29.6588 17.5539 29.6549 17.5574C29.6446 17.5663 29.6344 17.5751 29.6247 17.5848C29.619 17.5905 29.6139 17.5968 29.6085 17.6027C29.6009 17.6109 29.5931 17.6189 29.5859 17.6277C29.5738 17.6425 29.5624 17.6578 29.5518 17.6736C29.5516 17.6739 29.5514 17.6742 29.5512 17.6745L26.4264 22.3621C26.4046 22.3947 26.3861 22.4293 26.3715 22.4653C26.366 22.4788 26.3615 22.4925 26.3571 22.506C26.3557 22.5102 26.354 22.5142 26.3528 22.5183C26.3484 22.5328 26.345 22.5474 26.3418 22.5619C26.341 22.5657 26.3399 22.5695 26.3391 22.5733C26.3365 22.5864 26.3348 22.5996 26.3332 22.6128C26.3325 22.6185 26.3314 22.6241 26.3308 22.6298C26.3297 22.6407 26.3295 22.6514 26.3291 22.6623C26.3287 22.6706 26.328 22.6789 26.328 22.6872C26.328 22.6953 26.3287 22.7033 26.329 22.7114C26.3294 22.7225 26.3297 22.7336 26.3308 22.7447C26.3314 22.7501 26.3324 22.7555 26.3331 22.7609C26.3348 22.7743 26.3365 22.7878 26.3392 22.8011C26.3399 22.8048 26.341 22.8084 26.3418 22.8121C26.345 22.8268 26.3485 22.8414 26.3528 22.856C26.3541 22.8602 26.3558 22.8642 26.3571 22.8684C26.3616 22.882 26.366 22.8957 26.3716 22.9091C26.3863 22.945 26.4047 22.9797 26.4266 23.0125L29.5513 27.6993C29.5515 27.6996 29.5517 27.6997 29.5518 27.6999C29.5644 27.7186 29.5781 27.7364 29.5927 27.7535C29.5974 27.7592 29.6025 27.7644 29.6074 27.7697C29.6174 27.7806 29.6277 27.791 29.6384 27.8011C29.6447 27.8071 29.651 27.8128 29.6574 27.8184C29.6688 27.8281 29.6806 27.8373 29.6927 27.8462C29.6981 27.8502 29.7034 27.8546 29.7089 27.8583C29.7265 27.8703 29.7447 27.8813 29.7635 27.8913C29.7683 27.8938 29.7732 27.8959 29.778 27.8982C29.793 27.9057 29.8083 27.9127 29.824 27.9189C29.8301 27.9213 29.8362 27.9235 29.8424 27.9256C29.8573 27.931 29.8724 27.9356 29.8879 27.9398C29.8942 27.9414 29.9005 27.9431 29.9069 27.9447C29.9228 27.9484 29.9388 27.9512 29.9552 27.9535C29.9611 27.9544 29.967 27.9556 29.9729 27.9563C29.9931 27.9585 30.0135 27.9598 30.0343 27.9599C30.036 27.9599 30.0376 27.9603 30.0393 27.9603C30.0396 27.9603 30.04 27.9602 30.0404 27.9602H36.485V32.0624C36.485 33.4625 35.3459 34.6016 33.9459 34.6016H3.71163C2.31164 34.6016 1.17258 33.4625 1.17258 32.0624C1.17258 32.0593 1.17219 32.0563 1.17211 32.0533V29.7178C1.17211 29.3952 0.909608 29.1319 0.586171 29.1319C0.263515 29.1319 0.000234375 29.3952 0.000234375 29.7178V32.0624C0.000234375 32.0685 0.000937498 32.0744 0.00117187 32.0804C0.0109375 34.1184 1.67148 35.7734 3.71163 35.7734H33.9459C35.992 35.7734 37.6566 34.109 37.6569 32.063C37.6569 32.0629 37.6569 32.0628 37.6569 32.0627V27.9602H38.2425C39.2116 27.9602 40 27.1717 40 26.2027V16.8271C39.9998 15.858 39.2113 15.0696 38.2423 15.0696ZM7.2578 1.54179L17.5968 4.49593C17.5972 4.49608 17.5978 4.49616 17.5982 4.49632L24.5276 6.47616H6.02452L7.2578 1.54179ZM36.4847 10.6088C35.8204 9.98428 34.9273 9.60045 33.9457 9.60045C33.9447 9.60045 33.9438 9.60061 33.9427 9.60061H3.71132C2.31125 9.60061 1.17219 8.46155 1.17219 7.06147C1.17219 5.66139 2.31125 4.52233 3.71132 4.52233H5.30491L4.81663 6.47616H3.71148C3.38788 6.47616 3.12554 6.7385 3.12554 7.0621C3.12554 7.38569 3.38788 7.64803 3.71148 7.64803H5.2721C5.27288 7.64803 5.27374 7.64819 5.2746 7.64819C5.27522 7.64819 5.27585 7.64803 5.2764 7.64803H28.7092C28.71 7.64803 28.7107 7.64819 28.7114 7.64819C28.7121 7.64819 28.7127 7.64803 28.7133 7.64803H33.1638C33.4874 7.64803 33.7497 7.38569 33.7497 7.0621C33.7497 6.7385 33.4874 6.47616 33.1638 6.47616H28.7932L21.955 4.52233H33.9456C35.3456 4.52233 36.4847 5.66139 36.4847 7.06147V10.6088ZM38.8279 26.2024C38.8279 26.5253 38.5652 26.788 38.2423 26.788H30.3521L27.6178 22.6869L30.3521 18.5852H38.2423C38.2505 18.5852 38.2584 18.5843 38.2666 18.584C38.4631 18.5812 38.6519 18.5462 38.8279 18.4839V26.2024ZM38.2423 17.4127C38.2382 17.4127 38.2342 17.4132 38.2302 17.4133H37.6566V16.2415H38.2423C38.5652 16.2415 38.8279 16.5042 38.8279 16.8271C38.8279 17.15 38.5652 17.4127 38.2423 17.4127Z" fill="#F0551C"/>
</svg>
