<svg width="50" height="50" viewBox="0 0 50 50" fill="none" xmlns="http://www.w3.org/2000/svg">
<rect width="50" height="50" rx="6" fill="#FEDCD0"/>
<g clip-path="url(#clip0_372_15610)">
<path d="M7.15304 20.4432C7.03932 20.5703 6.98493 20.7398 7.00361 20.9093L9.01575 39.0444C9.08442 39.6493 9.45526 40.1778 10.0005 40.4481C10.1121 40.5728 10.2711 40.6448 10.4387 40.6461H39.217C40.1232 40.6445 40.8874 39.9709 41.0031 39.0721L43.0001 23.3195C43.0001 23.3129 43.0001 23.3074 43.0001 23.3008C42.9968 23.2231 42.9894 23.1453 42.9773 23.0684C42.9633 23.0324 42.9457 22.9978 42.9251 22.9654C42.9097 22.9308 42.8913 22.8978 42.8699 22.8668C42.8457 22.8421 42.8196 22.8193 42.7919 22.7984C42.7608 22.7682 42.7262 22.7413 42.6891 22.7187C42.6831 22.7187 42.6801 22.7097 42.674 22.7066L39.8845 21.3126L38.0031 12.9116C37.9683 12.7556 37.8729 12.6199 37.7375 12.5347C37.6024 12.4493 37.4389 12.4215 37.2832 12.4572L22.5738 15.7602L16.3776 9.56197C16.1432 9.32765 15.7633 9.32765 15.529 9.56197L7.17584 17.9168C6.94153 18.1511 6.94153 18.531 7.17584 18.7653L8.65397 20.2435H7.60025C7.42939 20.2435 7.26704 20.316 7.15304 20.4432ZM39.9353 37.9516L38.1405 21.7826L41.756 23.5901L39.9353 37.9516ZM38.5001 20.6203L37.8724 20.3064C37.7628 20.2553 37.6403 20.2391 37.5213 20.2602C37.4922 20.2523 37.4625 20.2465 37.4326 20.2435H34.1961L30.1518 17.3545C30.0018 17.2474 29.8109 17.215 29.634 17.2669C29.4574 17.3185 29.314 17.4487 29.2456 17.6199L28.3029 19.9806L24.7024 17.9223C24.5165 17.8149 24.2877 17.8152 24.1017 17.9226C23.916 18.03 23.802 18.2286 23.8023 18.4431V20.2435H20.3639L19.7728 17.6185L36.9637 13.7626L38.5001 20.6203ZM32.1313 20.2435H29.4909L30.0785 18.7755L32.1313 20.2435ZM26.3437 20.2435H25.0024V19.4771L26.3437 20.2435ZM8.44878 18.3412L15.9532 10.8365L21.1877 16.0711L18.9237 16.5829C18.7677 16.6178 18.6322 16.7134 18.5471 16.8485C18.4619 16.9837 18.4342 17.1474 18.4699 17.3029L19.1336 20.2435H10.351L8.44878 18.3412ZM36.8953 21.4436L37.0846 23.1434C37.0747 23.1764 37.0678 23.2099 37.064 23.2437C37.0651 23.331 37.0857 23.4167 37.1241 23.4953L37.8279 29.8446H28.0029C27.6713 29.8446 27.4027 30.1132 27.4027 30.4448C27.4027 30.7761 27.6713 31.0447 28.0029 31.0447H37.9641L38.8223 38.7799C38.841 38.9499 38.7863 39.1199 38.6717 39.2474C38.5575 39.3746 38.394 39.4468 38.2229 39.446H10.8051C10.4996 39.4457 10.2428 39.2155 10.2093 38.9117L9.33631 31.0447H18.4015C18.7331 31.0447 19.0017 30.7761 19.0017 30.4448C19.0017 30.1132 18.7331 29.8446 18.4015 29.8446H9.20309L8.2705 21.4436H36.8953Z" fill="#F0551C"/>
<path d="M23.2036 33.4448C24.8606 33.4448 26.2038 32.1015 26.2038 30.4446C26.2038 28.7873 24.8606 27.4441 23.2036 27.4441C21.5464 27.4441 20.2031 28.7873 20.2031 30.4446C20.205 32.1007 21.5472 33.4429 23.2036 33.4448ZM23.2036 28.6442C24.1977 28.6442 25.0037 29.4502 25.0037 30.4446C25.0037 31.4387 24.1977 32.2447 23.2036 32.2447C22.2092 32.2447 21.4033 31.4387 21.4033 30.4446C21.4033 29.4502 22.2092 28.6442 23.2036 28.6442Z" fill="#F0551C"/>
<path d="M34.605 19.0431C35.5991 19.0431 36.4051 18.2369 36.4051 17.2427C36.4051 16.2486 35.5991 15.4424 34.605 15.4424C33.6106 15.4424 32.8047 16.2486 32.8047 17.2427C32.8047 18.2369 33.6106 19.0431 34.605 19.0431ZM34.605 16.6425C34.9363 16.6425 35.205 16.9112 35.205 17.2427C35.205 17.574 34.9363 17.8427 34.605 17.8427C34.2735 17.8427 34.0048 17.574 34.0048 17.2427C34.0048 16.9112 34.2735 16.6425 34.605 16.6425Z" fill="#F0551C"/>
<path d="M16.5277 13.2182C16.2934 12.9839 15.9135 12.9839 15.6792 13.2182L10.8786 18.0191C10.7226 18.1696 10.6599 18.3926 10.7149 18.6025C10.7698 18.8124 10.9335 18.9761 11.1434 19.031C11.3533 19.086 11.5763 19.0233 11.7271 18.8673L16.5277 14.0667C16.762 13.8324 16.762 13.4525 16.5277 13.2182Z" fill="#F0551C"/>
<path d="M18.3292 15.0185C18.0949 14.7842 17.715 14.7842 17.4807 15.0185L14.4802 18.019C14.3241 18.1695 14.2615 18.3926 14.3164 18.6024C14.3714 18.8123 14.5354 18.976 14.745 19.031C14.9548 19.0859 15.1779 19.0233 15.3287 18.8673L18.3292 15.867C18.5632 15.6327 18.5632 15.2528 18.3292 15.0185Z" fill="#F0551C"/>
</g>
<defs>
<clipPath id="clip0_372_15610">
<rect width="36" height="36" fill="white" transform="translate(7 7)"/>
</clipPath>
</defs>
</svg>
