<svg width="50" height="50" viewBox="0 0 50 50" fill="none" xmlns="http://www.w3.org/2000/svg">
<rect width="50" height="50" rx="6" fill="#FEDCD0"/>
<g clip-path="url(#clip0_372_15590)">
<path d="M23.5072 10.3344H39.6942C39.9851 10.3344 40.2208 10.0986 40.2208 9.80772C40.2208 9.51683 39.9851 9.28101 39.6942 9.28101H23.5072C23.2163 9.28101 22.9805 9.51676 22.9805 9.80772C22.9805 10.0986 23.2163 10.3344 23.5072 10.3344Z" fill="#F0551C"/>
<path d="M39.6942 11.8928H23.5072C23.2163 11.8928 22.9805 12.1286 22.9805 12.4195C22.9805 12.7104 23.2163 12.9462 23.5072 12.9462H39.6942C39.9851 12.9462 40.2208 12.7104 40.2208 12.4195C40.2208 12.1287 39.9851 11.8928 39.6942 11.8928Z" fill="#F0551C"/>
<path d="M23.5072 15.558H34.4912C34.7821 15.558 35.0179 15.3222 35.0179 15.0313C35.0179 14.7405 34.7822 14.5046 34.4912 14.5046H23.5072C23.2163 14.5046 22.9805 14.7404 22.9805 15.0313C22.9805 15.3222 23.2163 15.558 23.5072 15.558Z" fill="#F0551C"/>
<path d="M39.6942 21.8616H23.5072C23.2163 21.8616 22.9805 22.0973 22.9805 22.3882C22.9805 22.6791 23.2163 22.9149 23.5072 22.9149H39.6942C39.9851 22.9149 40.2208 22.6791 40.2208 22.3882C40.2208 22.0973 39.9851 21.8616 39.6942 21.8616Z" fill="#F0551C"/>
<path d="M39.6942 24.4731H23.5072C23.2163 24.4731 22.9805 24.7089 22.9805 24.9999C22.9805 25.2908 23.2163 25.5266 23.5072 25.5266H39.6942C39.9851 25.5266 40.2208 25.2908 40.2208 24.9999C40.2208 24.7089 39.9851 24.4731 39.6942 24.4731Z" fill="#F0551C"/>
<path d="M23.5072 28.1385H34.4912C34.7821 28.1385 35.0179 27.9027 35.0179 27.6118C35.0179 27.321 34.7822 27.0852 34.4912 27.0852H23.5072C23.2163 27.0852 22.9805 27.321 22.9805 27.6118C22.9805 27.9027 23.2163 28.1385 23.5072 28.1385Z" fill="#F0551C"/>
<path d="M20.9754 32.943C20.6786 32.682 20.2979 32.5525 19.9032 32.5773C19.5086 32.6027 19.1476 32.7801 18.8864 33.0769L18.619 33.3809C17.6858 32.6196 16.4962 32.1614 15.2007 32.1614C12.2124 32.1614 9.78125 34.5925 9.78125 37.5808C9.78125 40.5691 12.2124 43.0002 15.2007 43.0002C18.1891 43.0002 20.6202 40.5691 20.6202 37.5808C20.6202 36.9924 20.5239 36.4267 20.3494 35.896L21.1093 35.0321C21.3704 34.7352 21.5003 34.3545 21.4751 33.9599C21.4497 33.5653 21.2723 33.2042 20.9754 32.943ZM15.2007 41.9468C12.7932 41.9468 10.8347 39.9882 10.8347 37.5808C10.8347 35.1734 12.7933 33.2147 15.2007 33.2147C16.23 33.2147 17.1763 33.5737 17.9234 34.1718L15.6926 36.7079L14.8922 35.774C14.6349 35.4739 14.2761 35.2919 13.8819 35.2615C13.4883 35.2309 13.1053 35.356 12.8051 35.6134C12.1854 36.1446 12.1134 37.0808 12.6446 37.7005L14.5543 39.9285C14.8333 40.2541 15.2392 40.4425 15.668 40.4455C15.6719 40.4455 15.6757 40.4455 15.6782 40.4455C16.1036 40.4455 16.5086 40.2624 16.7896 39.9429L19.5057 36.8551C19.5457 37.0912 19.5669 37.3335 19.5669 37.5808C19.5668 39.9882 17.6082 41.9468 15.2007 41.9468ZM20.3183 34.3364L15.9986 39.2473C15.918 39.3388 15.802 39.3915 15.6802 39.3922C15.6786 39.3922 15.6769 39.3921 15.6753 39.3921C15.5517 39.3913 15.4346 39.337 15.3541 39.2431L13.4443 37.015C13.2911 36.8364 13.3119 36.5664 13.4906 36.4132C13.5686 36.3463 13.6659 36.3104 13.7675 36.3104C13.7787 36.3104 13.7898 36.3109 13.8009 36.3118C13.9146 36.3205 14.0181 36.373 14.0923 36.4596L15.2875 37.8539C15.3868 37.9698 15.5314 38.0369 15.684 38.0379C15.8384 38.0401 15.982 37.9737 16.0828 37.859L19.6772 33.7726C19.7525 33.687 19.8567 33.6358 19.9704 33.6286C20.084 33.621 20.194 33.6588 20.2796 33.734C20.3652 33.8094 20.4164 33.9134 20.4237 34.0272C20.4311 34.141 20.3936 34.2507 20.3183 34.3364Z" fill="#F0551C"/>
<path d="M39.6942 34.4421H23.5072C23.2163 34.4421 22.9805 34.6779 22.9805 34.9688C22.9805 35.2597 23.2163 35.4954 23.5072 35.4954H39.6942C39.9851 35.4954 40.2208 35.2597 40.2208 34.9688C40.2208 34.6779 39.9851 34.4421 39.6942 34.4421Z" fill="#F0551C"/>
<path d="M39.6942 37.0537H23.5072C23.2163 37.0537 22.9805 37.2895 22.9805 37.5804C22.9805 37.8712 23.2163 38.1071 23.5072 38.1071H39.6942C39.9851 38.1071 40.2208 37.8713 40.2208 37.5804C40.2208 37.2895 39.9851 37.0537 39.6942 37.0537Z" fill="#F0551C"/>
<path d="M34.4912 39.6655H23.5072C23.2163 39.6655 22.9805 39.9013 22.9805 40.1922C22.9805 40.4831 23.2163 40.7189 23.5072 40.7189H34.4912C34.7821 40.7189 35.0179 40.4831 35.0179 40.1922C35.0179 39.9012 34.7821 39.6655 34.4912 39.6655Z" fill="#F0551C"/>
<path d="M20.9754 7.78166C20.6786 7.52059 20.2979 7.39094 19.9032 7.4159C19.5086 7.44121 19.1476 7.61861 18.8864 7.91547L18.6197 8.21873C17.6865 7.45745 16.4962 7 15.2007 7C13.8588 7 12.571 7.49416 11.5747 8.39155C11.3586 8.58625 11.3412 8.91925 11.5359 9.13546C11.7305 9.3516 12.0636 9.36897 12.2797 9.17434C13.0822 8.45153 14.1196 8.05342 15.2007 8.05342C16.23 8.05342 17.1763 8.41237 17.9234 9.01052L15.6926 11.5465L14.8921 10.6127C14.6349 10.3125 14.276 10.1305 13.8819 10.1001C13.4882 10.0695 13.1053 10.1947 12.805 10.452C12.1854 10.9832 12.1134 11.9194 12.6445 12.5391L14.5543 14.7671C14.8333 15.0927 15.2391 15.2811 15.6679 15.284C15.6718 15.2841 15.6756 15.2841 15.6781 15.2841C16.1035 15.2841 16.5085 15.1009 16.7895 14.7815L19.5056 11.6936C19.5455 11.9297 19.5668 12.172 19.5668 12.4193C19.5668 14.8268 17.6082 16.7854 15.2007 16.7854C12.7933 16.7854 10.8347 14.8268 10.8347 12.4193C10.8347 11.903 10.9238 11.3978 11.0995 10.9179C11.1996 10.6447 11.0592 10.3422 10.7861 10.2422C10.5131 10.1422 10.2104 10.2825 10.1104 10.5556C9.89199 11.152 9.78125 11.779 9.78125 12.4193C9.78125 15.4076 12.2124 17.8387 15.2007 17.8387C18.1891 17.8387 20.6202 15.4076 20.6202 12.4193C20.6202 11.8307 20.5251 11.264 20.3507 10.733L21.1093 9.87065C21.3704 9.57379 21.5003 9.19305 21.4751 8.79845C21.4497 8.40393 21.2723 8.0428 20.9754 7.78166ZM20.3183 9.17498L15.9986 14.0859C15.918 14.1774 15.802 14.2302 15.6802 14.2308C15.6786 14.2308 15.6769 14.2307 15.6753 14.2307C15.5517 14.23 15.4346 14.1757 15.3541 14.0817L13.4443 11.8537C13.2911 11.675 13.3119 11.405 13.4906 11.2518C13.5686 11.1849 13.6659 11.1491 13.7675 11.1491C13.7787 11.1491 13.7898 11.1495 13.8009 11.1504C13.9146 11.1591 14.0181 11.2116 14.0923 11.2982L15.2875 12.6926C15.3868 12.8084 15.5314 12.8755 15.684 12.8765C15.8384 12.8754 15.982 12.8122 16.0828 12.6976L19.6772 8.61121C19.7525 8.52564 19.8567 8.47445 19.9704 8.46721C20.084 8.4599 20.194 8.49737 20.2796 8.57261C20.3652 8.64798 20.4164 8.75205 20.4237 8.86588C20.4311 8.97958 20.3936 9.08934 20.3183 9.17498Z" fill="#F0551C"/>
<path d="M20.9754 20.3622C20.6786 20.1012 20.2979 19.9712 19.9032 19.9965C19.5086 20.0218 19.1476 20.1992 18.8864 20.4961L18.6187 20.8005C17.6855 20.0391 16.4962 19.5806 15.2007 19.5806C12.2124 19.5806 9.78125 22.0117 9.78125 25C9.78125 27.9883 12.2124 30.4194 15.2007 30.4194C18.1891 30.4194 20.6201 27.9883 20.6201 25C20.6201 24.4115 20.5246 23.8451 20.3501 23.3142L21.1092 22.4512C21.3704 22.1544 21.5002 21.7736 21.475 21.379C21.4497 20.9845 21.2723 20.6234 20.9754 20.3622ZM20.3183 21.7555L18.0776 24.3028C17.8855 24.5212 17.9068 24.854 18.1252 25.0461C18.3436 25.2383 18.6763 25.217 18.8685 24.9985L19.5055 24.2744C19.5453 24.5105 19.5668 24.7528 19.5668 25C19.5668 27.4074 17.6082 29.366 15.2007 29.366C12.7933 29.366 10.8346 27.4074 10.8346 25C10.8346 22.5925 12.7932 20.6339 15.2007 20.6339C16.2299 20.6339 17.1761 20.9931 17.9232 21.5911L15.6926 24.127L14.8921 23.1932C14.6349 22.8931 14.276 22.711 13.8819 22.6806C13.4882 22.6497 13.1053 22.7752 12.805 23.0326C12.1854 23.5638 12.1134 24.5 12.6445 25.1197L14.5543 27.3476C14.8333 27.6733 15.2391 27.8616 15.6679 27.8646C15.6718 27.8647 15.6756 27.8647 15.6781 27.8647C16.1035 27.8647 16.5085 27.6815 16.7895 27.3621L17.2786 26.8062C17.4707 26.5878 17.4495 26.2549 17.231 26.0628C17.0126 25.8705 16.6798 25.892 16.4877 26.1104L15.9986 26.6664C15.9181 26.7579 15.8023 26.8106 15.68 26.8113C15.6785 26.8113 15.6769 26.8112 15.6753 26.8112C15.5517 26.8105 15.4346 26.7562 15.3541 26.6622L13.4443 24.4341C13.2911 24.2554 13.3119 23.9854 13.4906 23.8322C13.5772 23.758 13.6877 23.7217 13.801 23.7308C13.9147 23.7396 14.0181 23.7921 14.0924 23.8786L15.2876 25.273C15.3868 25.3888 15.5315 25.456 15.6841 25.4569H15.6874C15.8388 25.4569 15.9829 25.3918 16.0829 25.2781L19.6773 21.1917C19.7526 21.1061 19.8568 21.055 19.9705 21.0477C20.0841 21.0403 20.1941 21.0779 20.2797 21.1531C20.3653 21.2285 20.4164 21.3325 20.4237 21.4464C20.4311 21.5601 20.3936 21.6699 20.3183 21.7555Z" fill="#F0551C"/>
</g>
<defs>
<clipPath id="clip0_372_15590">
<rect width="36" height="36" fill="white" transform="translate(7 7)"/>
</clipPath>
</defs>
</svg>
