<svg width="24" height="24" viewBox="0 0 24 24" fill="none" xmlns="http://www.w3.org/2000/svg">
<path opacity="0.4" d="M16.34 1.99976H7.67C4.28 1.99976 2 4.37976 2 7.91976V16.0898C2 19.6198 4.28 21.9998 7.67 21.9998H16.34C19.73 21.9998 22 19.6198 22 16.0898V7.91976C22 4.37976 19.73 1.99976 16.34 1.99976Z" fill="#03B113"/>
<path d="M10.813 15.248C10.589 15.248 10.365 15.163 10.194 14.992L7.82095 12.619C7.47895 12.277 7.47895 11.723 7.82095 11.382C8.16295 11.04 8.71595 11.039 9.05795 11.381L10.813 13.136L14.941 9.00796C15.283 8.66596 15.836 8.66596 16.178 9.00796C16.52 9.34996 16.52 9.90396 16.178 10.246L11.432 14.992C11.261 15.163 11.037 15.248 10.813 15.248Z" fill="#03B113"/>
</svg>
