<svg width="50" height="50" viewBox="0 0 50 50" fill="none" xmlns="http://www.w3.org/2000/svg">
<path d="M18.75 45.8334H31.25C41.6667 45.8334 45.8333 41.6667 45.8333 31.2501V18.7501C45.8333 8.33341 41.6667 4.16675 31.25 4.16675H18.75C8.33333 4.16675 4.16666 8.33341 4.16666 18.7501V31.2501C4.16666 41.6667 8.33333 45.8334 18.75 45.8334Z" stroke="#1E63E9" stroke-width="3.5" stroke-linecap="round" stroke-linejoin="round"/>
<path d="M18.9583 25.0001V21.9168C18.9583 17.9376 21.7708 16.3334 25.2083 18.3126L27.875 19.8543L30.5417 21.3959C33.9792 23.3751 33.9792 26.6251 30.5417 28.6043L27.875 30.1459L25.2083 31.6876C21.7708 33.6668 18.9583 32.0418 18.9583 28.0834V25.0001Z" stroke="#1E63E9" stroke-width="3.5" stroke-miterlimit="10" stroke-linecap="round" stroke-linejoin="round"/>
</svg>
