<svg width="40" height="40" viewBox="0 0 40 40" fill="none" xmlns="http://www.w3.org/2000/svg">
<path d="M35.7321 7.65131H36.968C37.3991 7.65131 37.7487 7.30169 37.7487 6.87057C37.7487 6.43945 37.3991 6.08983 36.968 6.08983H34.0012C33.5701 6.08983 33.2205 6.43945 33.2205 6.87057V9.83737C33.2205 10.2685 33.5701 10.6181 34.0012 10.6181C34.4323 10.6181 34.7819 10.2685 34.7819 9.83737V8.97833C37.1509 12.1498 38.4385 15.9978 38.4385 20C38.4385 30.1671 30.1671 38.4385 20 38.4385C9.83292 38.4385 1.56148 30.1671 1.56148 20C1.56148 9.83292 9.83292 1.56148 20 1.56148C20.7519 1.56148 21.5087 1.60715 22.2495 1.69717C22.6769 1.74885 23.0667 1.44444 23.1187 1.01636C23.1708 0.588364 22.866 0.199088 22.4379 0.147091C21.6349 0.0494988 20.8147 0 20 0C14.6578 0 9.63532 2.08035 5.85787 5.85787C2.08035 9.63532 0 14.6578 0 20C0 25.3422 2.08035 30.3647 5.85787 34.1421C9.63532 37.9196 14.6578 40 20 40C25.3422 40 30.3647 37.9196 34.1421 34.1421C37.9196 30.3647 40 25.3422 40 20C40 15.4919 38.494 11.1642 35.7321 7.65131Z" fill="#F0551C"/>
<path d="M8.46602 11.7901C8.10165 11.5595 7.61939 11.668 7.38868 12.0321C5.60633 14.8471 4.81732 18.2326 5.16701 21.5648C5.52186 24.9465 7.04391 28.1355 9.45279 30.5445C12.3599 33.4516 16.1785 34.9051 19.9973 34.9051C23.816 34.9051 27.6346 33.4516 30.5418 30.5445C36.356 24.7303 36.356 15.2698 30.5418 9.4556C28.1365 7.05046 24.9528 5.52896 21.5767 5.17138C18.2506 4.81888 14.8688 5.60172 12.055 7.37532C11.6902 7.60525 11.5809 8.08736 11.8108 8.45212C12.0407 8.81695 12.5228 8.92618 12.8876 8.69633C18.1917 5.35321 24.9972 6.11935 29.4376 10.5597C34.643 15.7651 34.643 24.2349 29.4376 29.4403C24.2322 34.6458 15.7623 34.6458 10.557 29.4403C6.17799 25.0613 5.40038 18.0914 8.70805 12.8675C8.9386 12.5031 8.83031 12.0208 8.46602 11.7901Z" fill="#F0551C"/>
<path d="M30.1479 20.7934H31.1107C31.5419 20.7934 31.8915 20.4438 31.8915 20.0127C31.8915 19.5815 31.5419 19.2319 31.1107 19.2319H30.1479C29.7168 19.2319 29.3672 19.5815 29.3672 20.0127C29.3672 20.4438 29.7167 20.7934 30.1479 20.7934Z" fill="#F0551C"/>
<path d="M8.10547 19.9873C8.10547 20.4184 8.45508 20.768 8.88621 20.768H9.84901C10.2801 20.768 10.6297 20.4184 10.6297 19.9873C10.6297 19.5562 10.2801 19.2065 9.84901 19.2065H8.88621C8.45508 19.2065 8.10547 19.5561 8.10547 19.9873Z" fill="#F0551C"/>
<path d="M20.7919 9.85035V8.88755C20.7919 8.45643 20.4423 8.10681 20.0112 8.10681C19.5801 8.10681 19.2305 8.45643 19.2305 8.88755V9.85035C19.2305 10.2815 19.5801 10.6311 20.0112 10.6311C20.4423 10.6311 20.7919 10.2815 20.7919 9.85035Z" fill="#F0551C"/>
<path d="M19.207 30.1499V31.1127C19.207 31.5438 19.5566 31.8934 19.9878 31.8934C20.4189 31.8934 20.7685 31.5438 20.7685 31.1127V30.1499C20.7685 29.7188 20.4189 29.3691 19.9878 29.3691C19.5566 29.3691 19.207 29.7187 19.207 30.1499Z" fill="#F0551C"/>
<path d="M16.0868 14.9824C15.7818 14.6776 15.2876 14.6776 14.9826 14.9824C14.6777 15.2873 14.6777 15.7817 14.9826 16.0866L17.6286 18.7326C17.4258 19.1105 17.3105 19.542 17.3105 20C17.3105 21.4831 18.517 22.6896 20.0001 22.6896C21.4832 22.6896 22.6898 21.4831 22.6898 20C22.6898 19.542 22.5744 19.1105 22.3717 18.7326L27.7106 13.3937C28.0155 13.0888 28.0155 12.5945 27.7106 12.2895C27.4057 11.9847 26.9115 11.9847 26.6064 12.2895L21.2675 17.6284C20.8896 17.4257 20.4581 17.3104 20.0001 17.3104C19.5422 17.3104 19.1106 17.4258 18.7328 17.6284L16.0868 14.9824ZM21.1283 20C21.1283 20.6221 20.6222 21.1282 20.0001 21.1282C19.378 21.1282 18.872 20.6221 18.872 20C18.872 19.3779 19.378 18.8718 20.0001 18.8718C20.6222 18.8718 21.1283 19.3779 21.1283 20Z" fill="#F0551C"/>
<path d="M10.5593 10.5593C10.7053 10.4141 10.7887 10.2126 10.7887 10.0073C10.7887 9.80196 10.7053 9.60132 10.5593 9.45532C10.4141 9.31018 10.2133 9.22656 10.0073 9.22656C9.80196 9.22656 9.60053 9.3101 9.45532 9.45532C9.31018 9.60054 9.22656 9.80196 9.22656 10.0073C9.22656 10.2134 9.3101 10.4141 9.45532 10.5593C9.60053 10.7044 9.80196 10.788 10.0073 10.788C10.2133 10.788 10.4141 10.7044 10.5593 10.5593Z" fill="#F0551C"/>
<path d="M25.4096 2.33296C25.6158 2.33296 25.8173 2.25012 25.9624 2.1042C26.1076 1.95899 26.1912 1.75826 26.1912 1.55222C26.1912 1.34689 26.1077 1.14546 25.9624 1.00024C25.8173 0.855101 25.6158 0.771484 25.4096 0.771484C25.2043 0.771484 25.0029 0.855023 24.8577 1.00024C24.7125 1.14546 24.6289 1.34689 24.6289 1.55222C24.6289 1.75834 24.7124 1.95899 24.8577 2.1042C25.0029 2.25012 25.2043 2.33296 25.4096 2.33296Z" fill="#F0551C"/>
</svg>
