<svg width="17" height="16" viewBox="0 0 17 16" fill="none" xmlns="http://www.w3.org/2000/svg">
<path d="M12.1984 9.4298C12.1543 9.35845 12.0397 9.31436 11.8673 9.22859C11.6942 9.14441 10.8412 8.72756 10.6833 8.66984C10.6144 8.64499 10.5535 8.62495 10.4973 8.62495C10.4236 8.62495 10.3579 8.65862 10.2929 8.75562C10.1775 8.92797 9.8448 9.31436 9.7446 9.4298C9.68768 9.49553 9.62916 9.5284 9.55861 9.5284C9.50571 9.5284 9.44398 9.50996 9.37023 9.47229C9.19547 9.38811 8.63753 9.20534 7.97617 8.62094C7.46152 8.16481 7.1136 7.60205 7.01179 7.4297C6.91079 7.25895 7.00137 7.16516 7.08875 7.08018C7.16651 7.00082 7.2611 6.87817 7.34928 6.77796C7.43586 6.67776 7.46472 6.60641 7.52164 6.49178C7.57855 6.37714 7.5505 6.27613 7.50641 6.19036C7.46392 6.10458 7.11761 5.25885 6.97171 4.91414C6.86429 4.65762 6.75607 4.62475 6.66628 4.62475C6.63582 4.62475 6.60696 4.62876 6.58131 4.62876C6.48191 4.62876 6.36727 4.61353 6.25023 4.61353C6.1348 4.61353 5.94801 4.65681 5.78848 4.82997C5.63056 5.00072 5.18164 5.41677 5.18164 6.26251C5.18164 7.10904 5.80211 7.92511 5.89029 8.03975C5.97607 8.15519 7.08875 9.94686 8.84916 10.6355C9.86965 11.0347 10.2993 11.1253 10.5414 11.1253C10.7178 11.1253 10.7947 11.0772 10.9286 11.0652C11.2453 11.0371 11.9531 10.6483 12.0982 10.2475C12.2425 9.84665 12.2425 9.50115 12.1984 9.4298Z" fill="white"/>
<path d="M8.63023 0C4.29173 0 0.762096 3.50559 0.762096 7.81522C0.762096 9.11469 1.08516 10.3885 1.70082 11.5212L0.542446 14.941C0.445447 15.2272 0.517595 15.5431 0.729229 15.7595C0.882343 15.9166 1.08997 16 1.3016 16C1.38257 16 1.46434 15.988 1.5445 15.9623L5.13987 14.8208C6.21808 15.3499 7.41734 15.6288 8.63023 15.6288C12.9695 15.6288 16.5 12.1241 16.5 7.81522C16.5 3.50559 12.9695 0 8.63023 0ZM8.62862 14.0264C7.56725 14.0264 6.5195 13.7594 5.59921 13.2536C5.48057 13.1886 5.3475 13.155 5.21362 13.155C5.13266 13.155 5.05089 13.167 4.96992 13.1926L2.5674 13.955L3.33377 11.6944C3.40992 11.4699 3.38267 11.2222 3.25922 11.0194C2.67321 10.0574 2.36378 8.94955 2.36378 7.81602C2.36378 4.3914 5.17434 1.60409 8.62862 1.60409C12.0837 1.60409 14.8951 4.3914 14.8951 7.81602C14.8951 11.2398 12.0845 14.0264 8.62862 14.0264Z" fill="white"/>
</svg>
