<svg width="50" height="50" viewBox="0 0 50 50" fill="none" xmlns="http://www.w3.org/2000/svg">
<rect width="50" height="50" rx="6" fill="#FEDCD0"/>
<path d="M38.5 13.5391C38.8883 13.5391 39.2031 13.2243 39.2031 12.8359V9.10938C39.2031 7.94627 38.2569 7 37.0938 7H9.10938C7.94627 7 7 7.94627 7 9.10938V40.8906C7 42.0537 7.94627 43 9.10938 43H37.0938C38.2569 43 39.2031 42.0537 39.2031 40.8906V38.9219C39.2031 38.5335 38.8883 38.2188 38.5 38.2188C38.1117 38.2188 37.7969 38.5335 37.7969 38.9219V40.8906C37.7969 41.2783 37.4815 41.5938 37.0938 41.5938H9.10938C8.72167 41.5938 8.40625 41.2783 8.40625 40.8906V9.10938C8.40625 8.72167 8.72167 8.40625 9.10938 8.40625H37.0938C37.4815 8.40625 37.7969 8.72167 37.7969 9.10938V12.8359C37.7969 13.2243 38.1117 13.5391 38.5 13.5391Z" fill="#F0551C"/>
<path d="M35.1258 10.375H11.0781C10.6898 10.375 10.375 10.6898 10.375 11.0781V25.7734C10.375 26.1618 10.6898 26.4766 11.0781 26.4766C11.4665 26.4766 11.7812 26.1618 11.7812 25.7734V11.7812H34.4227V12.9062C34.4227 13.2946 34.7376 13.6094 35.1258 13.6094C35.5142 13.6094 35.829 13.2946 35.829 12.9062V11.0781C35.829 10.6898 35.5142 10.375 35.1258 10.375Z" fill="#F0551C"/>
<path d="M11.5752 27.8779C11.4445 27.7471 11.2638 27.6719 11.0781 27.6719C10.8932 27.6719 10.7118 27.7471 10.581 27.8779C10.4502 28.0087 10.375 28.1901 10.375 28.375C10.375 28.5599 10.4502 28.7413 10.581 28.8721C10.7118 29.0029 10.8932 29.0781 11.0781 29.0781C11.2638 29.0781 11.4445 29.0029 11.5752 28.8721C11.7067 28.7413 11.7813 28.5599 11.7813 28.375C11.7813 28.1901 11.7067 28.0087 11.5752 27.8779Z" fill="#F0551C"/>
<path d="M35.1258 36.6719C34.7375 36.6719 34.4227 36.9867 34.4227 37.375V38.2188H11.7812V31.082C11.7812 30.6937 11.4665 30.3789 11.0781 30.3789C10.6898 30.3789 10.375 30.6937 10.375 31.082V38.9219C10.375 39.3102 10.6898 39.625 11.0781 39.625H35.1258C35.5142 39.625 35.829 39.3102 35.829 38.9219V37.375C35.829 36.9867 35.5142 36.6719 35.1258 36.6719Z" fill="#F0551C"/>
<path d="M28.7908 31.8442C28.5162 31.5695 28.0711 31.5695 27.7964 31.8441L26.4068 33.2338L25.543 32.37C24.9976 31.8246 24.1103 31.8246 23.5649 32.37L23.0028 32.9321C22.7282 33.2066 22.7282 33.6518 23.0028 33.9265C23.2774 34.201 23.7226 34.201 23.9972 33.9265L24.554 33.3697L25.4178 34.2336C25.6904 34.5063 26.0486 34.6426 26.4068 34.6426C26.765 34.6426 27.1231 34.5063 27.3958 34.2336L28.7908 32.8386C29.0654 32.564 29.0654 32.1188 28.7908 31.8442Z" fill="#F0551C"/>
<path d="M42.6765 21.7503C42.9864 21.2669 43.0789 20.6715 42.9303 20.1168C42.7817 19.5622 42.4039 19.0929 41.8938 18.8292C41.6726 18.7149 41.5372 18.4803 41.5488 18.2316C41.5755 17.658 41.3579 17.0962 40.9519 16.6902C40.5459 16.2842 39.9843 16.0663 39.4105 16.0933C39.1606 16.1054 38.9272 15.9694 38.8129 15.7483C38.5492 15.2382 38.0799 14.8604 37.5252 14.7118C36.9704 14.5631 36.3752 14.6557 35.8919 14.9655C35.6823 15.1 35.4114 15.0999 35.2019 14.9655C34.7185 14.6556 34.1232 14.5631 33.5685 14.7118C33.0139 14.8604 32.5446 15.2382 32.2809 15.7483C32.1666 15.9695 31.9314 16.1045 31.6833 16.0933C31.1095 16.0665 30.5479 16.2842 30.1419 16.6902C29.7359 17.0962 29.5183 17.658 29.545 18.2316C29.5566 18.4803 29.4211 18.7149 29.2 18.8292C28.6899 19.0929 28.3121 19.5622 28.1635 20.1168C28.0925 20.3814 28.0771 20.6553 28.1135 20.9219H15.844C15.4556 20.9219 15.1408 21.2366 15.1408 21.625C15.1408 22.0133 15.4556 22.3281 15.844 22.3281H28.4727C28.4576 22.3667 28.4401 22.4046 28.4172 22.4403C28.1073 22.9237 28.0148 23.5191 28.1634 24.0738C28.1838 24.1499 28.2089 24.2243 28.2377 24.2969H15.8438C15.4554 24.2969 15.1406 24.6116 15.1406 25C15.1406 25.3883 15.4554 25.7031 15.8438 25.7031H29.503C29.5336 25.7835 29.5489 25.8702 29.5448 25.959C29.5181 26.5326 29.7357 27.0944 30.1417 27.5004C30.5477 27.9064 31.1093 28.1244 31.6831 28.0973C31.9315 28.0852 32.1664 28.2211 32.2807 28.4423C32.3651 28.6057 32.471 28.7553 32.5937 28.8884V35.4551C32.5937 35.7392 32.7646 35.9953 33.0269 36.1044C33.2891 36.2134 33.5913 36.1539 33.7927 35.9535L35.5468 34.2086L37.3009 35.9535C37.4353 36.0873 37.6145 36.1582 37.7969 36.1582C37.8878 36.1582 37.9795 36.1406 38.0667 36.1043C38.329 35.9952 38.4999 35.7391 38.4999 35.455V28.8883C38.6226 28.7553 38.7284 28.6057 38.8129 28.4423C38.9272 28.2211 39.162 28.0859 39.4105 28.0972C39.9846 28.1244 40.5459 27.9064 40.9519 27.5004C41.3579 27.0943 41.5755 26.5325 41.5488 25.9589C41.5372 25.7102 41.6727 25.4756 41.8938 25.3613C42.4039 25.0976 42.7817 24.6284 42.9303 24.0737C43.0789 23.519 42.9864 22.9237 42.6765 22.4402C42.5421 22.2307 42.5421 21.9599 42.6765 21.7503ZM37.0937 33.7639L36.0426 32.7183C35.7683 32.4454 35.3252 32.4454 35.0509 32.7183L33.9999 33.7639V29.5457C34.4206 29.5655 34.8422 29.4555 35.2018 29.2251C35.4114 29.0906 35.6823 29.0907 35.8918 29.2251C36.2239 29.438 36.6088 29.5483 36.9971 29.5483C37.0293 29.5483 37.0615 29.5467 37.0937 29.5451V33.7639ZM41.5719 23.7098C41.5248 23.8857 41.4097 24.0286 41.248 24.1122C40.5404 24.4781 40.107 25.2286 40.144 26.0244C40.1525 26.2063 40.0862 26.3773 39.9575 26.5061C39.8287 26.6349 39.6577 26.701 39.4758 26.6927C38.6796 26.6558 37.9295 27.089 37.5636 27.7967C37.48 27.9585 37.3371 28.0735 37.1612 28.1206C36.9854 28.1676 36.804 28.1396 36.6508 28.0413C36.3154 27.8263 35.9311 27.7188 35.5467 27.7188C35.1625 27.7188 34.7781 27.8263 34.4427 28.0413C34.2895 28.1395 34.1081 28.1676 33.9323 28.1206C33.7563 28.0735 33.6135 27.9584 33.5298 27.7967C33.164 27.089 32.414 26.6555 31.6177 26.6927C31.4362 26.7011 31.2647 26.6349 31.1359 26.5061C31.0071 26.3773 30.9409 26.2063 30.9494 26.0243C30.9755 25.4626 30.7665 24.9242 30.3929 24.527C30.3819 24.515 30.3707 24.5032 30.3589 24.4919C30.2106 24.3415 30.0386 24.2121 29.8454 24.1122C29.6837 24.0286 29.5687 23.8857 29.5216 23.7098C29.4745 23.5339 29.5026 23.3526 29.6009 23.1994C30.0308 22.5287 30.0308 21.662 29.6009 20.9914C29.5027 20.8381 29.4745 20.6568 29.5216 20.4809C29.5687 20.305 29.6838 20.1621 29.8455 20.0785C30.5531 19.7126 30.9865 18.9621 30.9495 18.1663C30.941 17.9844 31.0073 17.8133 31.136 17.6845C31.2648 17.5557 31.4362 17.4896 31.6177 17.498C32.414 17.5349 33.1641 17.1017 33.5299 16.394C33.6135 16.2322 33.7564 16.1172 33.9323 16.0701C34.1082 16.023 34.2895 16.0511 34.4427 16.1494C35.1135 16.5794 35.9802 16.5794 36.6507 16.1494C36.804 16.0512 36.9852 16.0229 37.1612 16.0701C37.3371 16.1172 37.48 16.2323 37.5636 16.394C37.9295 17.1016 38.6799 17.5351 39.4758 17.498C39.6577 17.4897 39.8287 17.5557 39.9575 17.6845C40.0863 17.8133 40.1525 17.9844 40.144 18.1663C40.107 18.962 40.5403 19.7126 41.2481 20.0785C41.4098 20.1621 41.5248 20.3049 41.5719 20.4809C41.619 20.6568 41.5909 20.8381 41.4926 20.9913C41.0627 21.662 41.0627 22.5286 41.4926 23.1993C41.5909 23.3526 41.6191 23.5339 41.5719 23.7098Z" fill="#F0551C"/>
<path d="M38.8911 20.1827C38.6165 19.9082 38.1713 19.9082 37.8967 20.1827L35.563 22.5165L34.6339 21.5875C34.3594 21.3129 33.9142 21.3129 33.6395 21.5875C33.365 21.8621 33.365 22.3073 33.6395 22.5819L35.0657 24.0081C35.2031 24.1455 35.383 24.2141 35.5629 24.2141C35.7428 24.2141 35.9228 24.1455 36.0601 24.0081L38.8911 21.1772C39.1656 20.9026 39.1656 20.4574 38.8911 20.1827Z" fill="#F0551C"/>
<path d="M15.583 15.5029C15.4523 15.3721 15.2709 15.2969 15.0859 15.2969C14.901 15.2969 14.7196 15.3721 14.5888 15.5029C14.458 15.6337 14.3828 15.8151 14.3828 16C14.3828 16.1849 14.458 16.3663 14.5888 16.4971C14.7196 16.6279 14.901 16.7031 15.0859 16.7031C15.2709 16.7031 15.4523 16.6279 15.583 16.4971C15.7138 16.3663 15.7891 16.1849 15.7891 16C15.7891 15.8151 15.7138 15.6337 15.583 15.5029Z" fill="#F0551C"/>
<path d="M21.1328 15.2969H17.7109C17.3226 15.2969 17.0078 15.6117 17.0078 16C17.0078 16.3883 17.3226 16.7031 17.7109 16.7031H21.1328C21.5212 16.7031 21.836 16.3883 21.836 16C21.836 15.6117 21.5212 15.2969 21.1328 15.2969Z" fill="#F0551C"/>
<path d="M28.2922 27.6719H20.2539C19.8656 27.6719 19.5508 27.9867 19.5508 28.375C19.5508 28.7633 19.8656 29.0781 20.2539 29.0781H28.2921C28.6805 29.0781 28.9952 28.7633 28.9952 28.375C28.9952 27.9867 28.6805 27.6719 28.2922 27.6719Z" fill="#F0551C"/>
</svg>
